<svg width="10" height="7" viewBox="0 0 10 7" fill="none" xmlns="http://www.w3.org/2000/svg">
<path d="M10 1.38672C9.9707 1.41211 9.93945 1.43555 9.91211 1.46094C8.30273 3.06836 6.69531 4.67773 5.08789 6.28711C5.06055 6.31445 5.04297 6.35156 5.02148 6.38281C5.00781 6.38281 4.99414 6.38281 4.98047 6.38281C4.95898 6.35156 4.93945 6.31445 4.91211 6.28711C3.30469 4.67773 1.69531 3.07031 0.0878906 1.46094C0.0605469 1.43359 0.0292969 1.41016 0 1.38672C0 1.38086 0 1.37305 0 1.36719C0.1875 1.18359 0.375 1 0.558594 0.814453C0.830078 0.542969 1.09766 0.271484 1.36719 0C1.37305 0 1.38086 0 1.38672 0C1.4043 0.0214844 1.42188 0.046875 1.44141 0.0664062C2.60547 1.23047 3.76953 2.39453 4.93359 3.55859C4.95312 3.57812 4.97461 3.59766 5 3.61914C5.02539 3.5957 5.04688 3.57812 5.06641 3.55859C6.23047 2.39453 7.39453 1.23047 8.55859 0.0664062C8.57812 0.046875 8.5957 0.0214844 8.61328 0C8.61914 0 8.62695 0 8.63281 0C8.70117 0.0703125 8.76758 0.140625 8.83594 0.208984C9.22266 0.595703 9.61133 0.980469 10 1.36719C10 1.37305 10 1.38086 10 1.38672Z" fill="white"/>
</svg>
