<svg width="202" height="48" viewBox="0 0 202 48" fill="none" xmlns="http://www.w3.org/2000/svg">
<g clip-path="url(#clip0_7_18024)">
<path d="M27.0853 34.7309C26.7276 34.9386 26.2701 35.1463 25.721 35.3623C25.172 35.5784 24.598 35.6947 23.9991 35.6947C23.6414 35.6947 23.3752 35.6615 23.2255 35.6033C23.0674 35.5368 22.9926 35.4122 22.9926 35.2294C22.9926 35.138 23.0175 35.0217 23.0591 34.8887C23.109 34.7558 23.1672 34.6893 23.2504 34.6893C23.2837 34.6893 23.317 34.7143 23.3669 34.7558C23.4584 34.8804 23.5998 34.9552 23.7911 34.9635C23.9825 34.9801 24.1821 34.9884 24.4067 34.9884C24.7395 34.9718 25.0306 34.8555 25.3051 34.6478C25.5713 34.4401 25.771 34.1493 25.8957 33.792C25.9623 33.5759 26.0205 33.227 26.0871 32.7534C26.1536 32.2798 26.2035 31.7148 26.2368 31.0584C26.2784 30.402 26.3033 29.6708 26.3283 28.8565C26.3533 28.0506 26.3616 27.1948 26.3616 26.3057C26.3616 24.2701 26.3033 22.6831 26.1952 21.5448C26.0871 20.4065 25.9456 19.7501 25.771 19.5839C25.5963 19.4427 25.38 19.3513 25.1221 19.3014C24.8642 19.2516 24.598 19.2349 24.3318 19.2349C24.2071 19.2349 24.0823 19.2349 23.9575 19.2433C23.8327 19.2516 23.7329 19.2516 23.6497 19.2516C23.5582 19.2516 23.4834 19.2183 23.4251 19.1435C23.3669 19.0771 23.3419 19.0023 23.3419 18.9192C23.3419 18.6367 23.4418 18.4955 23.6497 18.4955C23.7579 18.4955 23.9575 18.5038 24.2403 18.5287C24.5232 18.5536 24.8476 18.5785 25.2219 18.5952C25.588 18.6201 25.9789 18.6367 26.3865 18.6533C26.7941 18.6699 27.1602 18.6783 27.4929 18.6783C27.9005 18.6783 28.2832 18.6118 28.6326 18.4871C28.9819 18.3625 29.3479 18.2213 29.7306 18.0634C30.1049 17.9055 30.5209 17.7643 30.9701 17.6397C31.4193 17.515 31.9433 17.4485 32.534 17.4485C34.0729 17.4485 35.3956 17.6646 36.5019 18.1049C37.6083 18.5453 38.515 19.1352 39.2221 19.883C39.9292 20.6308 40.4532 21.4866 40.786 22.4505C41.1271 23.4143 41.2934 24.4113 41.2934 25.4499C41.2934 26.6713 41.0771 27.8927 40.6446 29.1224C40.212 30.3438 39.5964 31.4489 38.7978 32.4293C37.9993 33.4098 37.026 34.1991 35.8863 34.8057C34.7467 35.4122 33.4823 35.7113 32.0848 35.7113C31.7853 35.7113 31.411 35.6864 30.9701 35.6282C30.5209 35.5701 30.0633 35.4953 29.5892 35.4039C29.115 35.3125 28.6575 35.2045 28.2083 35.0882C27.7591 34.9801 27.3848 34.8555 27.0853 34.7309ZM32.6171 34.7558C33.5405 34.7558 34.3557 34.5315 35.0462 34.0828C35.7366 33.6341 36.3106 33.0442 36.7764 32.3213C37.2423 31.5901 37.5917 30.7593 37.8246 29.8121C38.0575 28.8649 38.174 27.9093 38.174 26.9206C38.174 25.8737 38.0409 24.8351 37.783 23.8048C37.5251 22.7745 37.1258 21.8605 36.5934 21.0546C36.061 20.2486 35.3956 19.5922 34.6053 19.102C33.815 18.6118 32.8917 18.3625 31.8352 18.3625C31.6605 18.3625 31.4525 18.3791 31.203 18.4207C30.9534 18.4622 30.7122 18.537 30.471 18.645C30.238 18.753 30.0218 18.8943 29.8387 19.0688C29.6474 19.2433 29.5226 19.4593 29.4644 19.7252C29.4145 19.9329 29.3729 20.2154 29.3313 20.5727C29.2897 20.9299 29.2564 21.3537 29.2149 21.8273C29.1733 22.3092 29.1483 22.8243 29.1317 23.381C29.115 23.9377 29.1067 24.511 29.1067 25.1093C29.1067 26.4553 29.1067 27.5853 29.115 28.4993C29.1233 29.4049 29.1317 30.1444 29.1483 30.7094C29.1649 31.2744 29.1816 31.6898 29.2065 31.964C29.2315 32.2382 29.2481 32.421 29.2648 32.5207C29.3147 32.7866 29.4228 33.0525 29.6058 33.3101C29.7888 33.5676 30.0218 33.8086 30.3129 34.0246C30.6041 34.2407 30.9368 34.4234 31.3278 34.5564C31.7187 34.6893 32.1513 34.7558 32.6171 34.7558Z" fill="white"/>
<path d="M53.4385 25.2256C53.2638 25.3668 53.0642 25.5413 52.8229 25.7573C52.5817 25.9734 52.3405 26.1728 52.0826 26.3722C51.8247 26.5716 51.5585 26.7378 51.2923 26.879C51.0261 27.0203 50.7682 27.0868 50.5187 27.0868C50.3024 27.0868 50.1028 27.0369 49.9281 26.9372C49.7534 26.8375 49.5953 26.7295 49.4456 26.6048C49.2959 26.4885 49.1544 26.3805 49.013 26.2725C48.8716 26.1728 48.7219 26.1229 48.5638 26.1229C48.1396 26.1229 47.7819 26.2974 47.4907 26.6381C47.1996 26.9871 46.9667 27.4191 46.7837 27.9592C46.6006 28.4909 46.4675 29.0726 46.3844 29.704C46.3012 30.3355 46.2513 30.9337 46.2513 31.5154C46.2513 32.0056 46.2679 32.3961 46.3095 32.7035C46.3511 33.0109 46.4093 33.2519 46.4842 33.4347C46.559 33.6175 46.6672 33.7338 46.8003 33.8003C46.9334 33.8667 47.0914 33.8917 47.2828 33.8917C47.4907 33.8917 47.707 33.8584 47.9399 33.8003C47.9898 33.7837 48.0231 33.8169 48.0481 33.8917C48.073 33.9665 48.0813 34.0329 48.0813 34.0828C48.0813 34.116 48.0564 34.1492 48.0148 34.1908C47.9649 34.2323 47.9399 34.249 47.9233 34.249C47.5739 34.3902 47.2245 34.5398 46.8668 34.7059C46.5091 34.8721 46.2097 35.0051 45.9684 35.1214C45.7521 35.2128 45.486 35.3208 45.1782 35.4288C44.8704 35.5368 44.6125 35.595 44.3879 35.595C44.1383 35.595 43.9304 35.5534 43.764 35.4787C43.5976 35.4039 43.5144 35.3208 43.5144 35.246C43.5144 35.1712 43.5311 35.0965 43.5727 35.0383C43.6143 34.9718 43.6475 34.8555 43.6808 34.6893C43.7141 34.4567 43.7474 34.1742 43.789 33.8501C43.8306 33.5261 43.8638 33.1771 43.9054 32.8032C43.947 32.4293 43.972 32.0388 43.9969 31.64C44.0219 31.2412 44.0302 30.8423 44.0302 30.4518C44.0302 29.5711 44.0052 28.8316 43.947 28.2168C43.8888 27.6019 43.7973 27.1117 43.6559 26.7378C43.5144 26.3639 43.3231 26.0897 43.0819 25.9235C42.8406 25.7573 42.5245 25.6743 42.1502 25.6743C42.0753 25.6743 42.0005 25.6743 41.9422 25.6743C41.8757 25.6743 41.8175 25.6826 41.7509 25.6992C41.6594 25.6992 41.6095 25.6493 41.6095 25.5579C41.6095 25.4665 41.6594 25.3918 41.7509 25.3502C41.9256 25.2422 42.1918 25.076 42.5495 24.8683C42.9072 24.6606 43.2815 24.4529 43.6642 24.2535C44.0468 24.054 44.4212 23.8796 44.7789 23.7217C45.1366 23.5638 45.4028 23.489 45.5775 23.489C45.7854 23.489 45.9518 23.5555 46.0932 23.6885C46.2346 23.8214 46.3428 23.9876 46.4093 24.1953C46.4759 24.403 46.5341 24.6274 46.5591 24.8932C46.5923 25.1508 46.609 25.4084 46.609 25.6576C46.609 25.8487 46.609 26.0398 46.6006 26.2476C46.5923 26.4553 46.5923 26.6713 46.5923 26.904C47.2994 25.8654 47.9316 25.0677 48.4973 24.4944C49.0629 23.9211 49.5953 23.6386 50.1028 23.6386C50.2941 23.6386 50.4771 23.7134 50.6601 23.8712C50.8431 24.0291 51.0344 24.2036 51.2341 24.403C51.4421 24.6024 51.65 24.7769 51.8663 24.9348C52.0826 25.0926 52.3155 25.1674 52.5484 25.1674C52.7564 25.1674 52.8978 25.1425 52.9976 25.101C53.0891 25.0511 53.1723 25.0179 53.2305 24.9846C53.3553 24.9846 53.4219 25.0677 53.4219 25.2422V25.2256H53.4385Z" fill="white"/>
<path d="M59.328 27.9093C59.2365 27.4274 59.1201 26.987 58.9953 26.6048C58.8705 26.2226 58.7125 25.8986 58.5211 25.641C58.3298 25.3834 58.1052 25.184 57.839 25.0511C57.5728 24.9182 57.2401 24.8517 56.8491 24.8517C56.4997 24.8517 56.1836 24.9182 55.8925 25.0428C55.6013 25.1674 55.3518 25.317 55.1355 25.4915C54.9275 25.6659 54.7611 25.8404 54.6447 26.0066C54.5282 26.1811 54.4617 26.314 54.445 26.4054C54.4284 26.5301 54.3619 26.5965 54.2371 26.5965C54.0208 26.5965 53.8128 26.5218 53.6215 26.3639C53.4302 26.206 53.3387 26.0232 53.3387 25.7989C53.3387 25.6743 53.3553 25.5829 53.3886 25.5164C53.7463 25.3087 54.1872 25.0926 54.7112 24.86C55.227 24.6273 55.7677 24.403 56.325 24.2036C56.8824 23.9959 57.4397 23.8297 57.9887 23.6968C58.5378 23.5638 59.0369 23.4973 59.4695 23.4973C60.1266 23.4973 60.6341 23.5887 60.9918 23.7798C61.3411 23.9709 61.6073 24.2368 61.782 24.5775C61.9567 24.9265 62.0565 25.3253 62.0981 25.7906C62.1397 26.2559 62.173 26.7544 62.2063 27.2862C62.2562 28.0838 62.3144 28.8565 62.3976 29.6043C62.4725 30.3521 62.5972 31.0085 62.747 31.5818C62.905 32.1551 63.1047 32.6204 63.3459 32.9694C63.5872 33.3184 63.8949 33.5012 64.2526 33.5012C64.4273 33.5012 64.6103 33.4679 64.8183 33.4098C65.0263 33.3433 65.2176 33.2685 65.4089 33.1854C65.6002 33.1023 65.7666 33.0109 65.9164 32.9278C66.0661 32.8448 66.1659 32.7866 66.2075 32.7534C66.3489 32.7534 66.4321 32.8198 66.4654 32.9611C66.4654 33.0359 66.4487 33.1106 66.4155 33.1688C66.3822 33.202 66.2657 33.2768 66.0661 33.4014C65.8581 33.5261 65.6086 33.6756 65.3091 33.8501C65.0096 34.0246 64.6769 34.2074 64.3192 34.4068C63.9615 34.6062 63.6038 34.789 63.2461 34.9635C62.8967 35.138 62.564 35.2792 62.2645 35.3873C61.965 35.4953 61.7321 35.5534 61.5574 35.5534C61.3495 35.5534 61.1748 35.4703 61.025 35.3042C60.8753 35.138 60.7422 34.922 60.6341 34.6478C60.5259 34.3736 60.4261 34.0578 60.3512 33.6923C60.2764 33.335 60.2015 32.9528 60.1433 32.5623C59.8604 32.7949 59.5027 33.0774 59.0618 33.4014C58.621 33.7255 58.1468 34.0246 57.6227 34.3071C57.107 34.5896 56.5746 34.8306 56.0339 35.0217C55.4932 35.2211 54.9691 35.3125 54.47 35.3125C54.0457 35.3125 53.6797 35.246 53.3636 35.1131C53.0475 34.9801 52.7896 34.8056 52.5734 34.5813C52.3654 34.3653 52.2073 34.1077 52.0992 33.8169C51.9994 33.5261 51.9495 33.227 51.9495 32.9112C51.9495 32.4127 52.0992 31.9973 52.407 31.6732C52.7148 31.3492 53.1889 31.0168 53.8295 30.6762C54.1289 30.5183 54.5449 30.3106 55.0772 30.053C55.6096 29.7954 56.1587 29.5295 56.716 29.2637C57.2734 28.9978 57.7891 28.7402 58.2716 28.4992C58.7624 28.2417 59.1118 28.0506 59.328 27.9093ZM60.0102 31.5569C59.9603 31.291 59.9187 31.0002 59.8687 30.6845C59.8188 30.3687 59.7772 30.0696 59.7273 29.7871C59.6774 29.5046 59.6358 29.2637 59.5942 29.0559C59.5526 28.8482 59.5277 28.7153 59.5111 28.6571C59.2615 28.7485 58.9787 28.8648 58.6626 28.9895C58.3464 29.1141 58.0303 29.2554 57.7226 29.4049C57.4065 29.5545 57.107 29.704 56.8241 29.8536C56.5413 30.0031 56.3084 30.1361 56.1171 30.269C55.7594 30.5017 55.4849 30.7426 55.2935 30.9753C55.1022 31.2079 55.0107 31.4904 55.0107 31.8228C55.0107 32.2798 55.1438 32.6786 55.41 33.0192C55.6762 33.3682 56.0921 33.5344 56.6578 33.5344C56.9572 33.5344 57.265 33.4762 57.5895 33.3682C57.9139 33.2602 58.2133 33.1356 58.4879 32.9943C58.7624 32.8531 59.0036 32.7118 59.2033 32.5706C59.4112 32.4293 59.5443 32.3213 59.6275 32.2382C59.7523 32.1136 59.8521 32.0056 59.9187 31.9225C60.0018 31.8311 60.0268 31.7148 60.0102 31.5569Z" fill="white"/>
<path d="M80.8316 24.9265C80.5155 25.1591 79.9914 25.3668 79.2677 25.5496C78.5357 25.7324 77.6955 25.8238 76.7389 25.8238C76.5475 25.8238 76.3396 25.8238 76.115 25.8321C75.8904 25.8404 75.7073 25.8404 75.5826 25.8404C75.6491 26.4387 75.5743 27.0452 75.358 27.6767C75.15 28.3082 74.9004 28.8981 74.6259 29.4548C74.3514 30.0115 74.0935 30.5017 73.8606 30.9254C73.6277 31.3492 73.5112 31.6566 73.5112 31.8394C73.5112 32.0887 73.6194 32.3296 73.844 32.5706C74.0603 32.8032 74.3348 33.0442 74.6675 33.2768C75.0003 33.5095 75.3496 33.7504 75.724 33.9914C76.0983 34.2323 76.456 34.4899 76.7804 34.7641C77.1132 35.0383 77.3877 35.3374 77.604 35.6698C77.8203 36.0021 77.9367 36.3594 77.9367 36.7499C77.9367 37.3149 77.7204 37.9298 77.2879 38.6111C76.8553 39.2841 76.273 39.9156 75.5327 40.5055C74.7923 41.0954 73.9272 41.5856 72.9456 41.9761C71.9557 42.3667 70.9075 42.5661 69.7928 42.5661C69.2771 42.5661 68.7114 42.5079 68.1125 42.3999C67.5052 42.2919 66.9479 42.1257 66.4405 41.9097C65.933 41.6936 65.5088 41.4195 65.1677 41.0954C64.8267 40.7714 64.6603 40.3975 64.6603 39.9571C64.6603 39.7078 64.8516 39.3755 65.2343 38.9684C65.6169 38.5612 66.0661 38.1458 66.5652 37.722C67.0643 37.2983 67.5635 36.8912 68.0459 36.5006C68.5284 36.1101 68.8778 35.7944 69.0858 35.5617C69.1357 35.5617 69.1939 35.595 69.2605 35.6531C69.327 35.7196 69.3686 35.7861 69.3686 35.8609C69.3686 35.8775 69.3686 35.8858 69.3603 35.8941C69.352 35.9024 69.352 35.9107 69.352 35.9273C69.1939 36.052 69.0026 36.2098 68.778 36.4009C68.5534 36.592 68.3288 36.7914 68.1042 37.0158C67.8879 37.2318 67.6966 37.4728 67.5385 37.7303C67.3805 37.9879 67.3056 38.2455 67.3056 38.4948C67.3056 38.8271 67.4387 39.1512 67.6966 39.4669C67.9544 39.7909 68.2955 40.0734 68.7114 40.3227C69.1274 40.572 69.6015 40.7797 70.1339 40.9375C70.6663 41.0954 71.207 41.1702 71.756 41.1702C72.8874 41.1702 73.7442 40.9209 74.3348 40.4307C74.9254 39.9405 75.2166 39.2425 75.2166 38.3452C75.2166 37.9713 75.1084 37.6057 74.9004 37.2651C74.6925 36.9161 74.4263 36.6003 74.1268 36.3012C73.819 36.0021 73.4863 35.7279 73.112 35.462C72.7459 35.2045 72.4049 34.9635 72.0971 34.7475C71.7893 34.5315 71.5314 34.3237 71.3235 34.1326C71.1155 33.9415 71.0074 33.7754 71.0074 33.6175C71.0074 33.4762 71.0489 33.3184 71.1405 33.1356C71.2236 32.9528 71.3235 32.7783 71.4316 32.5955C71.5397 32.4127 71.6396 32.2548 71.7228 32.1053C71.8059 31.9557 71.8558 31.8394 71.8558 31.7646C71.8558 31.7812 71.8392 31.7563 71.8059 31.6981C71.6978 31.8062 71.5397 31.9142 71.3318 32.0305C71.1238 32.1385 70.8909 32.2382 70.6164 32.3379C70.3419 32.4293 70.0507 32.5124 69.7429 32.5706C69.4351 32.637 69.1274 32.662 68.8113 32.662C68.2123 32.662 67.6882 32.5623 67.2307 32.3712C66.7732 32.1718 66.3905 31.9142 66.0911 31.5818C65.7833 31.2495 65.5504 30.8756 65.3923 30.4435C65.2343 30.0115 65.1594 29.5545 65.1594 29.0643C65.1594 28.3414 65.2675 27.7265 65.4755 27.2031C65.6835 26.6879 65.958 26.2476 66.2741 25.882C66.5985 25.5247 66.9396 25.2256 67.2973 25.0012C67.655 24.7769 67.9877 24.5858 68.2872 24.4279C68.4785 24.3365 68.7031 24.2451 68.961 24.1537C69.2189 24.0707 69.5017 23.9876 69.8012 23.9211C70.1006 23.8546 70.4084 23.7882 70.7162 23.7466C71.0323 23.6968 71.3318 23.6801 71.6146 23.6801C72.6045 23.6801 73.4031 23.7882 74.0187 24.0125C74.6343 24.2285 75.0335 24.4279 75.2166 24.6024C75.4079 24.6357 75.7406 24.6606 76.2314 24.6689C76.7139 24.6855 77.238 24.6938 77.787 24.6938C78.336 24.6938 78.8601 24.6938 79.3509 24.6938C79.8417 24.6938 80.1911 24.6938 80.399 24.6938C80.4739 24.6938 80.5571 24.6938 80.6319 24.6938C80.7068 24.6938 80.79 24.6855 80.8649 24.6689C80.9397 24.6855 80.973 24.7271 80.9564 24.7852C80.9314 24.8434 80.8898 24.8932 80.8316 24.9265ZM71.1238 31.2744C71.3401 31.2744 71.5647 31.2245 71.781 31.1331C71.9973 31.0418 72.1969 30.8756 72.3799 30.6512C72.5629 30.4269 72.7127 30.1195 72.8291 29.7373C72.9456 29.3551 73.0038 28.8732 73.0038 28.2915C73.0038 27.7598 72.9456 27.2612 72.8291 26.8126C72.7127 26.3556 72.538 25.9651 72.2967 25.6327C72.0638 25.3004 71.7727 25.0511 71.4233 24.8683C71.0739 24.6855 70.6663 24.5941 70.2005 24.5941C69.5266 24.5941 68.9527 24.8517 68.4785 25.3585C68.0043 25.8654 67.7714 26.5965 67.7714 27.5354C67.7714 28.0506 67.8629 28.5408 68.0543 28.9978C68.2456 29.4548 68.4868 29.8453 68.7946 30.1859C69.1024 30.5266 69.4601 30.7925 69.8677 30.9836C70.2836 31.1747 70.6996 31.2744 71.1238 31.2744Z" fill="white"/>
<path d="M87.8692 33.3433C87.6945 33.4846 87.4615 33.6757 87.1621 33.9083C86.8626 34.1409 86.5215 34.3819 86.1222 34.6145C85.7313 34.8472 85.2987 35.0466 84.8245 35.2128C84.3504 35.379 83.8596 35.462 83.3438 35.462C82.5619 35.462 81.8631 35.3208 81.2476 35.0466C80.632 34.7724 80.1246 34.4068 79.7086 33.9415C79.2927 33.4762 78.9766 32.9362 78.7686 32.3047C78.5607 31.6815 78.4525 31.0085 78.4525 30.3023C78.4525 29.4714 78.5773 28.7319 78.8269 28.0921C79.0764 27.4524 79.3842 26.8874 79.7585 26.4138C80.1245 25.9318 80.5238 25.533 80.9481 25.2173C81.3723 24.8932 81.755 24.644 82.1044 24.4529C82.2624 24.3615 82.4621 24.2535 82.7033 24.1454C82.9445 24.0374 83.2107 23.9377 83.5019 23.838C83.793 23.7466 84.1091 23.6635 84.4419 23.5888C84.783 23.5223 85.1323 23.4807 85.49 23.4807C86.1638 23.4807 86.821 23.5638 87.4532 23.7383C88.0854 23.9128 88.6511 24.1787 89.1336 24.5526C89.616 24.9182 90.0153 25.3918 90.3148 25.9734C90.6143 26.555 90.764 27.2529 90.764 28.0672C90.764 28.7236 90.6392 29.3468 90.398 29.9284C90.1568 30.51 89.8656 31.0251 89.5412 31.4821C89.2084 31.9391 88.884 32.3213 88.5596 32.6454C88.2435 32.9694 88.0106 33.2021 87.8692 33.3433ZM85.2072 33.7172C86.1056 33.7172 86.7877 33.3765 87.2702 32.7035C87.7527 32.0305 87.9856 30.9919 87.9856 29.596C87.9856 28.8898 87.8858 28.2334 87.6945 27.6351C87.4948 27.0286 87.2203 26.5052 86.8709 26.0482C86.5215 25.5912 86.1056 25.2339 85.6315 24.9763C85.1573 24.7188 84.6499 24.5858 84.1008 24.5858C83.7099 24.5858 83.3355 24.6855 82.9861 24.8932C82.6368 25.101 82.3207 25.3918 82.0545 25.774C81.7883 26.1562 81.572 26.6215 81.4222 27.1699C81.2642 27.7182 81.1893 28.3414 81.1893 29.031C81.1893 29.7705 81.3058 30.4269 81.5304 31.0085C81.755 31.5901 82.0628 32.0804 82.4371 32.4792C82.8115 32.878 83.244 33.1854 83.7182 33.3932C84.1923 33.6175 84.6915 33.7172 85.2072 33.7172Z" fill="white"/>
<path d="M95.8549 29.0144C95.8383 29.1557 95.8216 29.2803 95.805 29.3883C95.7884 29.4963 95.7801 29.621 95.7717 29.7622C95.7634 29.9035 95.7551 30.0779 95.7468 30.294C95.7385 30.5017 95.7385 30.7842 95.7385 31.1332C95.7385 31.6982 95.7551 32.1635 95.7967 32.5207C95.8383 32.878 95.8965 33.1688 95.9714 33.3765C96.0463 33.5843 96.1461 33.7338 96.2625 33.8086C96.379 33.8834 96.5287 33.9249 96.6951 33.9249C96.8032 33.9249 96.9197 33.9083 97.0445 33.8751C97.0778 33.8751 97.1027 33.9166 97.1277 34.008C97.1526 34.0911 97.1443 34.1493 97.1194 34.1825C97.0278 34.2573 96.8365 34.3736 96.562 34.5232C96.2875 34.6727 95.9797 34.814 95.6303 34.9552C95.2809 35.0965 94.9316 35.2211 94.5572 35.3291C94.1912 35.4371 93.8751 35.4953 93.6255 35.4953C93.4093 35.4953 93.2346 35.4704 93.1098 35.4122C92.985 35.354 92.9185 35.2876 92.9185 35.2128C92.9185 35.138 92.9268 35.0882 92.9434 35.0715C92.9601 35.0549 92.985 35.0134 93.01 34.9552C93.0432 34.8804 93.0682 34.7807 93.0765 34.6644C93.0932 34.5481 93.1181 34.4068 93.1431 34.249C93.1763 34.0329 93.2096 33.7504 93.2346 33.4098C93.2679 33.0691 93.3011 32.7035 93.3261 32.3047C93.3594 31.9059 93.3843 31.4904 93.4093 31.0584C93.4342 30.6263 93.4425 30.2109 93.4425 29.8038C93.4425 29.6293 93.4425 29.4132 93.4342 29.1557C93.4259 28.8981 93.4176 28.5657 93.401 28.1586C93.3843 27.7016 93.3344 27.3194 93.2512 26.9954C93.168 26.6713 93.0516 26.4138 92.9185 26.2227C92.7854 26.0232 92.6356 25.882 92.4693 25.7906C92.3029 25.6992 92.1448 25.6494 91.9868 25.6494C91.9119 25.6494 91.8287 25.6494 91.7539 25.6494C91.679 25.6494 91.5958 25.6577 91.5209 25.6743C91.4544 25.6743 91.4294 25.6078 91.4294 25.4666C91.4294 25.4333 91.4378 25.4084 91.4627 25.3835C91.4877 25.3585 91.5625 25.3087 91.6873 25.2339C91.8953 25.0927 92.1698 24.9182 92.5109 24.7188C92.8602 24.511 93.2096 24.3283 93.5673 24.1538C93.925 23.9793 94.2661 23.8297 94.5905 23.7051C94.9149 23.5805 95.1562 23.514 95.3309 23.514C95.7884 23.514 96.013 23.7716 96.013 24.2867C96.013 24.3615 96.0047 24.5027 95.988 24.7105C95.9714 24.9182 95.9631 25.1259 95.9548 25.3336C95.9464 25.5413 95.9381 25.7491 95.9215 25.9318C95.9048 26.123 95.8965 26.2476 95.8965 26.3057C96.2293 25.99 96.5786 25.6743 96.953 25.3419C97.3273 25.0096 97.7349 24.7105 98.1758 24.4363C98.6167 24.1621 99.0825 23.9377 99.565 23.7632C100.047 23.5888 100.555 23.5057 101.071 23.5057C102.011 23.5057 102.784 23.7799 103.392 24.3199C103.999 24.86 104.298 25.7158 104.298 26.8957C104.298 27.2114 104.282 27.577 104.24 28.0007C104.198 28.4245 104.157 28.8649 104.107 29.3218C104.057 29.7788 104.015 30.2275 103.974 30.6596C103.932 31.0999 103.916 31.4904 103.916 31.8394C103.916 33.094 104.323 33.7172 105.138 33.7172C105.297 33.7172 105.471 33.6923 105.671 33.6341C105.87 33.576 106.054 33.5178 106.237 33.443C106.42 33.3765 106.578 33.3018 106.719 33.2353C106.86 33.1688 106.952 33.1024 107.002 33.0608C107.018 33.0442 107.035 33.0608 107.06 33.094C107.085 33.1356 107.102 33.1854 107.118 33.2436C107.135 33.3101 107.135 33.3599 107.127 33.4098C107.118 33.4596 107.11 33.4846 107.093 33.5012C106.969 33.576 106.694 33.7255 106.278 33.9499C105.862 34.1659 105.396 34.3902 104.889 34.6229C104.381 34.8472 103.874 35.0549 103.367 35.2377C102.867 35.4205 102.46 35.5119 102.169 35.5119C101.811 35.5119 101.561 35.4288 101.428 35.2543C101.295 35.0798 101.229 34.9054 101.229 34.7143C101.229 34.5896 101.245 34.4318 101.287 34.2407C101.329 34.0496 101.378 33.7504 101.437 33.3267C101.503 32.8697 101.561 32.3379 101.611 31.7231C101.67 31.1082 101.695 30.4518 101.695 29.7456C101.695 28.3663 101.437 27.3194 100.929 26.6049C100.422 25.8903 99.7813 25.533 99.0077 25.533C98.5169 25.533 98.0926 25.6244 97.71 25.8155C97.3356 26.0066 97.0112 26.2559 96.745 26.5799C96.4788 26.904 96.2625 27.2696 96.1128 27.685C96.0047 28.1005 95.9048 28.5491 95.8549 29.0144Z" fill="white"/>
<path d="M107.276 22.1015C107.385 21.7442 107.501 21.3371 107.626 20.8801C107.751 20.4231 107.875 19.9661 107.992 19.4925C108.108 19.0189 108.216 18.5702 108.308 18.1299C108.399 17.6895 108.474 17.299 108.516 16.95C108.815 17.0248 109.131 17.058 109.472 17.0331C109.814 17.0082 110.13 16.9583 110.429 16.8835C110.238 17.3405 110.021 17.8391 109.78 18.3874C109.539 18.9358 109.298 19.4759 109.073 19.9993C108.849 20.5228 108.641 21.0047 108.458 21.4451C108.275 21.8854 108.15 22.2095 108.067 22.4338C107.925 22.3591 107.792 22.2926 107.667 22.2427C107.551 22.1929 107.418 22.143 107.276 22.1015Z" fill="white"/>
<path d="M111.918 34.6395C111.793 34.7142 111.677 34.8472 111.569 35.03C111.461 35.2128 111.386 35.3457 111.361 35.4454C111.344 35.4787 111.303 35.5036 111.228 35.5285C111.161 35.5534 111.103 35.5617 111.078 35.5617C110.937 35.5617 110.87 35.4953 110.87 35.354C110.87 35.3042 110.937 35.1795 111.061 34.9801C111.153 34.8223 111.303 34.573 111.511 34.2406C111.718 33.9 111.926 33.5593 112.134 33.202C112.342 32.8448 112.542 32.529 112.725 32.2382C112.908 31.9474 113.033 31.7563 113.116 31.6649C113.191 31.5901 113.291 31.5735 113.399 31.6317C113.507 31.6898 113.54 31.7563 113.49 31.8311C113.457 31.8643 113.432 31.8976 113.424 31.9474C113.407 31.9973 113.399 32.072 113.399 32.1801C113.399 32.3213 113.524 32.4958 113.765 32.7118C114.006 32.9195 114.322 33.1273 114.697 33.3267C115.071 33.5261 115.487 33.6923 115.944 33.8335C116.402 33.9748 116.851 34.0412 117.284 34.0412C117.799 34.0412 118.215 33.8917 118.523 33.5926C118.831 33.2934 118.981 32.9029 118.981 32.4127C118.981 31.8643 118.806 31.4572 118.465 31.1913C118.115 30.9254 117.691 30.7177 117.184 30.5765C116.676 30.4352 116.119 30.3189 115.512 30.2358C114.904 30.1527 114.347 30.0198 113.84 29.8453C113.332 29.6708 112.9 29.4215 112.559 29.0892C112.209 28.7568 112.043 28.2832 112.043 27.6518C112.043 27.1698 112.209 26.6713 112.55 26.1728C112.891 25.6743 113.332 25.2256 113.89 24.8351C114.447 24.4445 115.088 24.1205 115.811 23.8712C116.535 23.622 117.284 23.4973 118.074 23.4973C118.307 23.4973 118.581 23.5223 118.897 23.5638C119.214 23.6137 119.521 23.6718 119.829 23.7383C120.137 23.8048 120.42 23.8796 120.678 23.946C120.935 24.0125 121.127 24.079 121.252 24.1205C121.285 24.1205 121.277 24.187 121.227 24.3116C121.177 24.4529 121.06 24.6689 120.877 24.9597C120.686 25.2505 120.478 25.533 120.253 25.8155C120.029 26.098 119.812 26.3473 119.621 26.5716C119.421 26.7876 119.288 26.904 119.205 26.904C119.189 26.904 119.139 26.904 119.064 26.904C118.989 26.904 118.931 26.8873 118.897 26.8541C118.914 26.7793 118.922 26.6713 118.922 26.5467C118.922 25.9983 118.673 25.5662 118.182 25.2505C117.691 24.9348 116.968 24.7769 116.028 24.7769C115.57 24.7769 115.196 24.9098 114.913 25.1757C114.622 25.4416 114.48 25.7657 114.48 26.1395C114.48 26.7544 114.655 27.2031 114.996 27.5022C115.337 27.8013 115.77 28.0256 116.294 28.1752C116.809 28.3248 117.367 28.4411 117.966 28.5159C118.565 28.5906 119.122 28.7153 119.638 28.8815C120.154 29.0476 120.586 29.2969 120.935 29.6209C121.277 29.9533 121.451 30.4435 121.451 31.0999C121.451 31.399 121.385 31.6898 121.26 31.9723C121.135 32.2548 120.969 32.5207 120.769 32.77C120.561 33.0192 120.337 33.2519 120.087 33.4679C119.837 33.6756 119.588 33.8667 119.33 34.0246C119.097 34.1825 118.831 34.3403 118.531 34.5065C118.232 34.6727 117.908 34.8223 117.566 34.9635C117.217 35.1048 116.868 35.2211 116.51 35.3042C116.152 35.3873 115.786 35.4371 115.429 35.4371C115.254 35.4371 114.979 35.4039 114.605 35.3291C114.231 35.2626 113.848 35.1795 113.465 35.0798C113.083 34.9884 112.742 34.897 112.442 34.8056C112.093 34.7309 111.935 34.6727 111.918 34.6395Z" fill="white"/>
<path d="M145.717 34.7309C145.359 34.9386 144.901 35.1463 144.352 35.3623C143.803 35.5784 143.229 35.6947 142.63 35.6947C142.273 35.6947 142.006 35.6615 141.857 35.6033C141.699 35.5368 141.624 35.4122 141.624 35.2294C141.624 35.138 141.649 35.0217 141.69 34.8887C141.74 34.7558 141.798 34.6893 141.882 34.6893C141.915 34.6893 141.948 34.7143 141.998 34.7558C142.09 34.8804 142.231 34.9552 142.422 34.9635C142.614 34.9801 142.813 34.9884 143.038 34.9884C143.371 34.9718 143.662 34.8555 143.936 34.6478C144.203 34.4401 144.402 34.1493 144.527 33.792C144.594 33.5759 144.652 33.227 144.718 32.7534C144.785 32.2798 144.835 31.7148 144.868 31.0584C144.91 30.402 144.935 29.6708 144.96 28.8565C144.984 28.0506 144.993 27.1948 144.993 26.3057C144.993 24.2701 144.935 22.6831 144.826 21.5448C144.718 20.4065 144.577 19.7501 144.402 19.5839C144.227 19.4427 144.011 19.3513 143.753 19.3014C143.495 19.2516 143.229 19.2349 142.963 19.2349C142.838 19.2349 142.714 19.2349 142.589 19.2433C142.464 19.2516 142.364 19.2516 142.281 19.2516C142.189 19.2516 142.115 19.2183 142.056 19.1435C141.998 19.0771 141.973 19.0023 141.973 18.9192C141.973 18.6367 142.073 18.4955 142.281 18.4955C142.389 18.4955 142.589 18.5038 142.872 18.5287C143.154 18.5536 143.479 18.5785 143.853 18.5952C144.219 18.6201 144.61 18.6367 145.018 18.6533C145.425 18.6699 145.791 18.6783 146.124 18.6783C146.532 18.6783 146.914 18.6118 147.264 18.4871C147.613 18.3625 147.979 18.2213 148.362 18.0634C148.736 17.9055 149.152 17.7643 149.601 17.6397C150.05 17.515 150.575 17.4485 151.165 17.4485C152.704 17.4485 154.027 17.6646 155.133 18.1049C156.24 18.5453 157.146 19.1352 157.853 19.883C158.56 20.6308 159.084 21.4866 159.417 22.4505C159.758 23.4143 159.925 24.4113 159.925 25.4499C159.925 26.6713 159.708 27.8927 159.276 29.1224C158.843 30.3438 158.228 31.4489 157.429 32.4293C156.63 33.4098 155.657 34.1991 154.518 34.8057C153.378 35.4122 152.114 35.7113 150.716 35.7113C150.417 35.7113 150.042 35.6864 149.601 35.6282C149.152 35.5701 148.695 35.4953 148.22 35.4039C147.746 35.3125 147.289 35.2045 146.84 35.0882C146.382 34.9801 146.008 34.8555 145.717 34.7309ZM151.248 34.7558C152.172 34.7558 152.987 34.5315 153.677 34.0828C154.368 33.6341 154.942 33.0442 155.408 32.3213C155.873 31.5901 156.223 30.7593 156.456 29.8121C156.689 28.8649 156.805 27.9093 156.805 26.9206C156.805 25.8737 156.672 24.8351 156.414 23.8048C156.156 22.7745 155.757 21.8605 155.225 21.0546C154.692 20.2486 154.027 19.5922 153.237 19.102C152.446 18.6118 151.523 18.3625 150.466 18.3625C150.292 18.3625 150.084 18.3791 149.834 18.4207C149.585 18.4622 149.343 18.537 149.102 18.645C148.869 18.753 148.653 18.8943 148.47 19.0688C148.279 19.2433 148.154 19.4593 148.096 19.7252C148.046 19.9329 148.004 20.2154 147.963 20.5727C147.921 20.9299 147.888 21.3537 147.846 21.8273C147.804 22.3092 147.78 22.8243 147.763 23.381C147.746 23.9377 147.738 24.511 147.738 25.1093C147.738 26.4553 147.738 27.5853 147.746 28.4993C147.755 29.4049 147.763 30.1444 147.78 30.7094C147.796 31.2744 147.813 31.6898 147.838 31.964C147.863 32.2382 147.879 32.421 147.896 32.5207C147.946 32.7866 148.054 33.0525 148.237 33.3101C148.42 33.5676 148.653 33.8086 148.944 34.0246C149.235 34.2407 149.568 34.4234 149.959 34.5564C150.35 34.6893 150.774 34.7558 151.248 34.7558Z" fill="white"/>
<path d="M172.07 32.4709C171.895 32.662 171.629 32.9195 171.271 33.2436C170.914 33.5759 170.473 33.9 169.965 34.2323C169.458 34.5647 168.884 34.8472 168.26 35.0798C167.628 35.3125 166.962 35.4288 166.255 35.4288C165.615 35.4288 164.982 35.3291 164.367 35.138C163.751 34.9386 163.202 34.6478 162.72 34.2406C162.229 33.8418 161.846 33.335 161.555 32.7118C161.264 32.0887 161.123 31.3492 161.123 30.4851C161.123 29.7788 161.172 29.1723 161.264 28.6654C161.355 28.1586 161.48 27.7099 161.638 27.3277C161.796 26.9455 161.971 26.6132 162.171 26.339C162.37 26.0648 162.57 25.8155 162.77 25.5995C163.019 25.317 163.327 25.0511 163.685 24.8018C164.042 24.5526 164.433 24.3199 164.849 24.1205C165.265 23.9128 165.706 23.7549 166.172 23.6386C166.638 23.5223 167.104 23.4641 167.569 23.4641C168.418 23.4641 169.083 23.6054 169.558 23.8879C170.04 24.1704 170.273 24.5609 170.273 25.0677C170.273 25.3834 170.181 25.6743 169.99 25.9401C170.148 25.8903 170.348 25.8155 170.589 25.7075C170.83 25.5995 171.08 25.4832 171.329 25.3668C171.579 25.2505 171.804 25.1425 172.003 25.0511C172.203 24.9597 172.328 24.8849 172.394 24.8434C172.427 24.8101 172.461 24.8018 172.502 24.8101C172.544 24.8184 172.561 24.8434 172.561 24.8932C172.561 25.1009 172.519 25.2671 172.444 25.4001C172.369 25.533 172.269 25.641 172.161 25.7158C171.912 25.8737 171.546 26.0648 171.08 26.3057C170.606 26.5384 170.09 26.7876 169.516 27.0452C168.942 27.3028 168.351 27.5604 167.736 27.8179C167.12 28.0755 166.546 28.3248 166.006 28.5574C165.465 28.7901 164.991 28.9978 164.591 29.1806C164.192 29.3634 163.918 29.488 163.776 29.5711C163.776 30.1029 163.884 30.6014 164.092 31.0667C164.3 31.532 164.6 31.9308 164.974 32.2798C165.348 32.6287 165.806 32.8946 166.33 33.094C166.854 33.2934 167.436 33.3848 168.06 33.3848C168.626 33.3848 169.133 33.3267 169.591 33.2103C170.048 33.094 170.431 32.9611 170.747 32.8115C171.063 32.662 171.304 32.529 171.488 32.4127C171.671 32.2964 171.762 32.2382 171.779 32.2382C171.845 32.2382 171.903 32.2631 171.97 32.3213C172.037 32.3545 172.07 32.4127 172.07 32.4709ZM163.776 28.8731C164.042 28.7818 164.342 28.6654 164.683 28.5325C165.024 28.3995 165.348 28.2583 165.673 28.1004C165.997 27.9426 166.288 27.793 166.555 27.6518C166.821 27.5105 167.029 27.3859 167.17 27.2779C167.453 27.0701 167.594 26.7295 167.594 26.2393C167.594 26.0482 167.561 25.8571 167.486 25.6493C167.42 25.4416 167.312 25.2588 167.17 25.0926C167.029 24.9265 166.854 24.7935 166.654 24.6938C166.446 24.5941 166.222 24.5443 165.972 24.5443C165.756 24.5443 165.515 24.619 165.265 24.7686C165.016 24.9182 164.774 25.1591 164.558 25.4998C164.342 25.8404 164.151 26.2808 164.001 26.8375C163.851 27.3942 163.776 28.0755 163.776 28.8731Z" fill="white"/>
<path d="M175.905 29.0144C175.888 29.1557 175.871 29.2803 175.855 29.3883C175.838 29.4963 175.83 29.621 175.821 29.7622C175.813 29.9035 175.805 30.0779 175.796 30.294C175.788 30.5017 175.788 30.7842 175.788 31.1332C175.788 31.6982 175.805 32.1635 175.846 32.5207C175.888 32.878 175.946 33.1688 176.021 33.3765C176.096 33.5843 176.196 33.7338 176.312 33.8086C176.429 33.8834 176.578 33.9249 176.745 33.9249C176.853 33.9249 176.969 33.9083 177.094 33.8751C177.127 33.8751 177.152 33.9166 177.177 34.008C177.202 34.0911 177.194 34.1493 177.169 34.1825C177.078 34.2573 176.886 34.3736 176.612 34.5232C176.337 34.6727 176.029 34.814 175.68 34.9552C175.331 35.0965 174.981 35.2211 174.607 35.3291C174.241 35.4371 173.925 35.4953 173.675 35.4953C173.459 35.4953 173.284 35.4704 173.159 35.4122C173.035 35.354 172.968 35.2876 172.968 35.2128C172.968 35.138 172.976 35.0882 172.993 35.0715C173.01 35.0549 173.035 35.0134 173.06 34.9552C173.093 34.8804 173.118 34.7807 173.126 34.6644C173.143 34.5481 173.168 34.4068 173.193 34.249C173.226 34.0329 173.259 33.7504 173.284 33.4098C173.318 33.0691 173.351 32.7035 173.376 32.3047C173.409 31.9059 173.434 31.4904 173.459 31.0584C173.484 30.6263 173.492 30.2109 173.492 29.8038C173.492 29.6293 173.492 29.4132 173.484 29.1557C173.476 28.8981 173.467 28.5657 173.451 28.1586C173.434 27.7016 173.384 27.3194 173.301 26.9954C173.218 26.6713 173.101 26.4138 172.968 26.2227C172.835 26.0232 172.685 25.882 172.519 25.7906C172.353 25.6992 172.195 25.6494 172.036 25.6494C171.962 25.6494 171.878 25.6494 171.804 25.6494C171.729 25.6494 171.646 25.6577 171.571 25.6743C171.504 25.6743 171.479 25.6078 171.479 25.4666C171.479 25.4333 171.487 25.4084 171.512 25.3835C171.537 25.3585 171.612 25.3087 171.737 25.2339C171.945 25.0927 172.219 24.9182 172.561 24.7188C172.91 24.511 173.259 24.3283 173.617 24.1538C173.975 23.9793 174.316 23.8297 174.64 23.7051C174.965 23.5805 175.206 23.514 175.381 23.514C175.838 23.514 176.063 23.7716 176.063 24.2867C176.063 24.3615 176.054 24.5027 176.038 24.7105C176.021 24.9182 176.013 25.1259 176.004 25.3336C175.996 25.5413 175.988 25.7491 175.971 25.9318C175.955 26.123 175.946 26.2476 175.946 26.3057C176.279 25.99 176.628 25.6743 177.003 25.3419C177.377 25.0096 177.785 24.7105 178.226 24.4363C178.666 24.1621 179.132 23.9377 179.615 23.7632C180.097 23.5888 180.605 23.5057 181.12 23.5057C182.06 23.5057 182.834 23.7799 183.441 24.3199C184.049 24.86 184.348 25.7158 184.348 26.8957C184.348 27.2114 184.331 27.577 184.29 28.0007C184.248 28.4245 184.207 28.8649 184.157 29.3218C184.107 29.7788 184.065 30.2275 184.024 30.6596C183.982 31.0999 183.965 31.4904 183.965 31.8394C183.965 33.094 184.373 33.7172 185.188 33.7172C185.346 33.7172 185.521 33.6923 185.721 33.6341C185.92 33.576 186.103 33.5178 186.286 33.443C186.469 33.3765 186.627 33.3018 186.769 33.2353C186.91 33.1688 187.002 33.1024 187.052 33.0608C187.068 33.0442 187.085 33.0608 187.11 33.094C187.135 33.1356 187.151 33.1854 187.168 33.2436C187.185 33.3101 187.185 33.3599 187.176 33.4098C187.168 33.4596 187.16 33.4846 187.143 33.5012C187.018 33.576 186.744 33.7255 186.328 33.9499C185.912 34.1659 185.446 34.3902 184.939 34.6229C184.431 34.8472 183.924 35.0549 183.416 35.2377C182.917 35.4205 182.51 35.5119 182.218 35.5119C181.861 35.5119 181.611 35.4288 181.478 35.2543C181.345 35.0798 181.278 34.9054 181.278 34.7143C181.278 34.5896 181.295 34.4318 181.337 34.2407C181.378 34.0496 181.428 33.7504 181.486 33.3267C181.553 32.8697 181.611 32.3379 181.661 31.7231C181.719 31.1082 181.744 30.4518 181.744 29.7456C181.744 28.3663 181.486 27.3194 180.979 26.6049C180.472 25.8903 179.831 25.533 179.057 25.533C178.567 25.533 178.142 25.6244 177.76 25.8155C177.385 26.0066 177.061 26.2559 176.795 26.5799C176.529 26.904 176.312 27.2696 176.162 27.685C176.054 28.1005 175.955 28.5491 175.905 29.0144Z" fill="white"/>
<path d="M26.0455 29.7954C25.8874 29.3966 25.8541 28.9396 25.929 28.466C25.9456 28.3331 25.9623 28.2666 25.9623 28.25C25.9706 28.2084 25.9706 28.1586 25.9789 28.117C25.721 28.2334 25.4632 28.358 25.2053 28.4743C25.1637 28.4162 25.1221 28.358 25.0805 28.2998C25.2469 27.2031 24.8975 26.2392 24.3069 25.3668C24.9224 25.1674 25.538 24.968 26.1536 24.7686C26.1702 23.8131 26.1869 22.8576 26.2285 21.9104C26.2451 21.5614 26.2701 21.1958 26.32 20.8302C23.8244 22.7412 20.7715 23.3478 17.5106 22.4837C15.8136 22.035 14.3994 21.1709 13.8171 19.3679C13.7173 19.0687 13.6258 18.7613 13.5759 18.6201C12.7856 18.6865 12.0619 18.9275 11.4464 18.753C10.8557 18.5868 10.3816 17.9969 9.86582 17.6064C9.49149 18.3376 8.6014 18.4207 8.06069 17.6147C7.80282 17.2325 7.65308 16.7672 7.47839 16.3351C7.32866 15.9862 7.2122 15.6206 7.07078 15.2633C6.91273 15.4378 6.87945 15.5707 6.88777 15.7037C6.946 16.7506 6.99591 17.7975 7.07078 18.8444C7.20388 20.6308 7.68635 22.3258 8.55981 23.8879C10.0322 26.5301 12.3032 28.1918 15.1564 29.0892C15.4975 29.1972 15.6306 29.3467 15.7138 29.7123C16.0132 31.075 16.6205 32.3213 17.8517 33.0442C18.7667 33.5842 19.4072 34.1825 19.9063 35.1629C20.6301 36.5588 22.0193 37.3731 23.4334 38.0294C24.049 38.3119 24.6978 38.528 25.3301 38.7689L25.4465 38.5778C25.2885 38.4532 25.1221 38.3452 24.989 38.2039C24.3568 37.5309 23.9242 36.725 24.1072 35.811C24.2403 35.1463 24.6479 34.5481 24.9058 33.9083C24.989 33.7089 25.0971 33.3516 25.014 33.2851C24.7893 33.1023 24.4566 32.9278 24.1904 32.9611C23.7911 33.0026 23.4085 33.2186 23.0175 33.3599C24.0324 32.3795 24.0656 31.3824 23.0258 30.3853C23.9824 30.2109 24.8809 30.1028 25.746 29.8785C25.8458 29.8536 25.9456 29.8203 26.0455 29.7954ZM11.4214 22.5834C10.7892 21.3786 10.34 20.1157 10.1403 18.5868C11.1302 19.4759 12.1118 19.5922 13.1184 19.0854C13.4345 19.7085 13.6674 20.3234 14.0334 20.8468C14.4078 21.3786 14.2081 21.7608 13.8837 22.1513C13.3014 22.8742 12.4945 22.8576 11.6793 22.7994C11.5878 22.7994 11.4713 22.6831 11.4214 22.5834ZM14.0334 25.9734C13.709 25.6576 13.3679 25.3585 13.0768 25.0095C12.6692 24.511 12.3032 23.9792 11.854 23.3727C13.1766 23.4475 14.0085 22.816 14.6823 21.8356C15.2646 22.384 15.9134 22.8576 16.3543 23.4724C16.554 23.7549 16.4708 24.3698 16.321 24.752C16.1297 25.2422 15.8136 25.7324 15.4226 26.0897C14.9651 26.5217 14.4909 26.422 14.0334 25.9734ZM17.7435 31.1082C17.5272 30.7509 17.3109 30.3937 17.0947 30.0364C17.1695 29.9948 17.2361 29.945 17.3109 29.9034C17.8101 30.0945 17.6271 30.726 17.9432 31.0334C17.8766 31.0584 17.8101 31.0833 17.7435 31.1082ZM17.9681 28.5076C17.0115 28.009 16.0715 27.4856 14.9901 26.9039C16.4957 26.314 16.92 25.2339 16.9616 23.8962C17.7685 24.2534 18.5338 24.5775 19.2825 24.9348C19.4239 25.0012 19.557 25.1674 19.6318 25.317C20.1892 26.5716 19.6568 27.9592 18.4173 28.5076C18.2925 28.5657 18.0846 28.574 17.9681 28.5076ZM24.6396 28.117C24.5731 28.7734 24.024 28.8981 23.5748 28.923C22.169 29.0061 20.7548 28.9978 19.349 29.0061C19.2409 29.0061 19.1244 28.9147 18.8832 28.8067C20.3722 27.9426 20.5968 26.6879 20.2141 25.3003C21.2789 25.3003 22.2938 25.292 23.3086 25.3087C23.4417 25.3087 23.5998 25.3585 23.6913 25.4416C24.4316 26.1811 24.7561 27.0701 24.6396 28.117Z" fill="#FF8D16"/>
<path d="M18.1096 8.95693C19.0579 10.1035 19.3491 10.1866 20.5553 9.66318C21.67 10.7766 21.9195 10.735 22.743 9.27266C23.5666 9.99553 23.5666 9.99553 24.7977 9.22281C24.5399 10.5273 24.1406 11.6988 23.0841 12.5463C22.4353 13.0698 21.7864 13.0864 21.096 12.6128C20.314 12.0893 19.4655 11.7487 18.4839 11.8816C17.7769 11.9813 17.2362 12.5048 17.3526 13.1446C17.4108 13.4437 17.677 13.8093 17.9515 13.9339C18.3259 14.1084 18.6669 13.9007 18.7668 13.4437C18.7834 13.3772 18.85 13.3191 18.85 13.3274C19.2492 13.7096 19.6485 14.0835 20.0645 14.4823C19.4655 15.2301 18.5255 15.3796 17.5107 15.496C17.7186 16.1856 18.3592 16.036 18.7917 16.2354C17.8101 17.2076 15.614 16.9583 14.5825 15.6871C14.4993 16.036 14.4245 16.3185 14.333 16.7174C13.9254 16.4016 13.5344 16.1108 13.0103 15.7037C12.9188 16.4681 12.8439 17.1328 12.7691 17.7726C12.0287 17.3987 11.6877 16.734 11.1054 14.3992C10.0489 15.1553 9.17545 16.0028 8.90094 17.3488C8.50164 16.7423 8.59315 16.0776 9.37509 13.7677C8.79279 14.0419 8.302 14.2746 7.8112 14.5155C7.77793 14.4906 7.74465 14.4657 7.71138 14.4491C8.04412 13.9921 8.38518 13.5351 8.70961 13.0947C8.23545 13.0366 8.18554 13.0615 6.00607 14.3909C6.58837 13.801 7.12076 13.1695 7.75297 12.6377C8.76784 11.7819 9.93244 11.1837 11.305 11.3166C11.9206 11.3748 12.5278 11.6157 13.1018 11.865C13.6841 12.1226 14.2498 12.1974 14.8737 11.9647C14.7073 11.9232 14.5492 11.8567 14.3829 11.8484C13.8089 11.7902 13.4013 11.4745 13.2183 10.9677C13.0852 10.6187 12.9105 10.5605 12.5944 10.5273C11.7708 10.4359 11.0388 10.519 10.3151 11.0092C9.8243 11.3416 9.16713 11.4413 8.49333 11.6739C8.93421 11.0175 9.28359 10.4857 9.58306 10.0371C8.90925 9.32252 8.32695 8.70766 7.66979 8.01803C8.6597 7.91002 9.45828 7.78539 10.2652 7.73553C11.0638 7.69399 11.8707 7.72722 12.6942 7.57766C12.3365 7.35333 11.9788 7.12899 11.5795 6.87972C12.0038 6.63046 12.3282 6.43936 12.7774 6.16517C8.98412 3.7473 5.04112 2.67547 0.657227 3.06598C0.840235 2.97458 1.01493 2.87488 1.20625 2.8001C4.28413 1.55378 7.37032 1.77811 10.4232 2.82503C12.087 3.39833 13.734 3.93841 15.5308 3.68914C15.9967 3.62267 16.4542 3.48973 16.9117 3.39002C17.3277 3.29863 17.7186 3.02444 18.1179 3.53958C18.2344 3.68914 18.7584 3.6476 19.033 3.53958C19.6984 3.26539 20.3307 2.8998 20.9795 2.56745C19.9979 1.53716 18.8167 0.631499 17.2694 0.182823C18.8084 -0.614823 22.6183 1.26297 25.7627 4.32892C25.6046 4.53664 25.4466 4.75267 25.2802 4.97701C24.3402 4.17105 23.8577 4.35385 23.3586 5.64171C22.2439 5.17642 22.2023 5.18473 21.2873 6.20671C21.2041 6.16517 21.1209 6.12362 21.0294 6.07377C20.2974 5.64171 19.973 5.7248 19.4988 6.42274C19.374 6.61384 19.1245 6.71355 18.9415 6.87142C18.7834 7.00436 18.5588 7.1373 18.5255 7.31178C18.276 8.43347 17.5356 8.8406 16.5124 8.38362C16.4043 8.33377 16.2878 8.25899 16.1714 8.24237C15.822 8.20913 15.4227 8.16759 15.3312 8.64119C15.2563 9.04832 15.4726 9.35575 15.8636 9.4056C16.2795 9.46376 16.7204 9.44715 17.1363 9.37237C17.4524 9.32252 17.7602 9.11479 18.1096 8.95693ZM12.7608 9.47207C11.9206 8.52487 11.122 8.35869 10.4149 8.94031C11.0305 9.88751 12.0204 9.14803 12.7608 9.47207ZM15.7554 5.48384C15.7554 5.55862 14.9735 6.33134 14.9735 6.40612C15.4393 6.40612 16.8785 5.9159 17.3443 5.9159C17.3443 5.84112 17.3443 5.76634 17.3443 5.69156C16.8785 5.69156 16.213 5.48384 15.7554 5.48384Z" fill="#FF8D16"/>
<path d="M4.1094 16.7589C2.37914 17.4319 1.17294 18.7613 2.20902e-05 20.2071C-0.0498894 18.994 1.40586 16.2853 3.95135 12.7956C3.24427 12.7291 3.0779 12.8205 0.665508 14.5238C1.85506 12.1641 4.12604 10.9178 6.29718 9.32252C5.88126 9.32252 5.66497 9.32252 5.30727 9.32252C5.58179 9.00678 5.78975 8.76583 6.13913 8.35039C5.13258 8.48333 4.28409 8.59965 3.43559 8.70767C3.41064 8.65782 3.38568 8.61627 3.36073 8.56642C4.66674 7.94326 5.97276 7.3284 7.38692 6.6637C5.64834 6.5723 4.00126 6.64708 2.37082 7.06252C2.34586 6.99605 2.31259 6.92958 2.28763 6.86311C2.77843 6.61385 3.24427 6.27319 3.76002 6.14025C4.79152 5.88267 5.84798 5.64172 6.90444 5.57525C8.46833 5.48385 10.0489 5.55032 11.488 5.55032C10.9805 6.15686 10.5646 6.81326 9.99063 7.27855C9.64957 7.56105 9.06727 7.56105 8.58479 7.63583C8.24373 7.68568 7.89435 7.64414 7.4701 7.64414C7.48674 8.41686 7.91931 8.89877 8.34355 9.38068C8.08568 10.868 7.34533 12.106 6.35541 13.2443C5.88126 13.7927 5.54851 14.4657 5.15754 15.0805C5.19913 15.1221 5.23241 15.1636 5.274 15.2052C5.64002 15.0888 6.01435 14.9642 6.46356 14.823C6.43028 15.4627 6.38037 16.0277 6.36373 16.5927C6.28887 19.1269 6.60497 21.5946 7.75294 23.8962C9.23364 26.8541 11.7542 28.5491 14.7655 29.6376C15.1565 29.7788 15.3228 29.9699 15.4809 30.3521C16.0216 31.6732 16.6621 32.9528 17.2278 34.1825C16.7204 33.8086 16.1214 33.3433 15.4892 32.9278C14.8986 32.5373 14.283 32.1551 13.6425 31.8477C13.4179 31.7397 12.977 31.7895 12.8189 31.9474C12.6609 32.1136 12.6027 32.5789 12.7191 32.7783C13.0768 33.3599 13.5343 33.8751 13.9669 34.4068C14.0667 34.5231 14.2248 34.5896 14.3579 34.6727C14.3246 34.7309 14.2997 34.7973 14.2664 34.8555C13.7673 34.5979 13.2349 34.3985 12.7857 34.0828C11.4713 33.1439 10.6728 31.7729 9.81594 30.4518C9.5747 30.0779 9.30019 29.704 8.95913 29.4215C8.49329 29.0227 7.9609 29.1557 7.88603 29.7539C7.76957 30.7177 7.84444 31.6981 7.84444 32.6786C7.84444 32.7866 7.88603 32.8946 7.83612 33.0192C6.67152 31.0999 6.35541 29.0061 6.61329 26.6132C6.214 26.9704 5.93949 27.2197 5.57347 27.5437C5.49028 27.0037 5.42373 26.5467 5.34055 26.0149C4.55028 26.8873 4.05117 27.8678 3.71843 28.9064C3.394 29.9284 3.19436 30.9919 2.91984 32.0804C2.52055 30.7094 2.62037 29.3634 2.98639 28.0672C3.34409 26.7959 3.90143 25.5829 4.31736 24.3199C4.49205 23.7882 4.56692 23.2065 4.61683 22.6499C4.65842 22.1763 4.4255 21.711 3.93471 21.7026C3.56869 21.6943 3.06126 21.9104 2.86161 22.2012C2.51223 22.708 2.35418 23.3561 2.11294 23.9377C2.07135 24.0374 2.03807 24.1454 2.0048 24.2451C1.92993 24.2368 1.86338 24.2285 1.78852 24.2202C1.86338 23.5389 1.91329 22.8493 2.01312 22.1679C2.19613 20.8635 3.06126 19.8747 3.63524 18.7447C3.93471 18.1631 4.05949 17.4901 4.26745 16.8669C4.23418 16.8337 4.16763 16.7921 4.1094 16.7589Z" fill="#FF8D16"/>
<path d="M26.2118 0.432068C26.3033 0.980449 26.4031 1.53714 26.503 2.11045C27.027 1.92765 27.4097 1.80302 27.7923 1.67008C27.027 2.60067 27.5178 3.59772 27.5677 4.52831C27.6177 5.51706 27.443 6.38949 26.7192 7.12897C25.9539 7.91 25.0056 8.00139 23.9991 8.03463C23.0591 8.06786 22.1191 8.15095 21.1874 8.2922C20.8047 8.35037 20.4304 8.59132 20.106 8.81566C19.6984 9.10647 19.3656 9.12308 19.0329 8.74088C18.6669 8.33375 18.9996 8.05125 19.2741 7.89338C19.7732 7.59426 20.3056 7.27022 20.863 7.17051C21.6449 7.02926 22.4601 7.10404 23.2587 7.0625C23.8327 7.03757 24.415 7.04588 24.9723 6.92956C26.478 6.61382 27.0187 5.62507 26.5778 4.12949C26.32 3.26537 26.0454 2.40956 25.8042 1.54545C25.6545 1.04692 25.8375 0.648097 26.2118 0.432068Z" fill="#FF8D16"/>
<path d="M26.3782 17.3987C25.5463 16.385 24.7061 16.169 23.6746 16.6841C23.3003 16.8669 22.8511 16.95 22.4268 16.9916C22.144 17.0165 21.7447 16.9749 21.5784 16.8005C21.3371 16.5429 21.0792 16.0859 21.1624 15.8117C21.2456 15.5541 21.7364 15.3298 22.0775 15.2799C22.7762 15.1885 23.5083 15.1636 24.207 15.2218C25.4215 15.3215 26.1369 16.061 26.3782 17.3987Z" fill="#FF8D16"/>
<path d="M31.1281 34.922C31.3361 35.9689 31.0283 36.8496 30.1548 37.29C29.3812 37.6805 28.5327 37.9214 27.6925 38.1624C27.1102 38.3286 26.6444 38.071 26.5363 37.6473C26.4115 37.157 26.7858 36.5671 27.3432 36.4508C27.8256 36.3511 28.3164 36.2929 28.8072 36.2846C30.2963 36.268 30.3878 36.2264 31.1281 34.922Z" fill="#FF8D16"/>
<path d="M29.2731 32.7949C29.6724 33.7172 29.5393 34.44 28.6326 35.0549C27.6759 35.6947 26.5862 36.1516 25.5297 36.6253C25.3384 36.7083 24.806 36.5006 24.7727 36.3594C24.7145 36.0769 24.806 35.57 24.9973 35.462C25.7127 35.0881 26.478 34.7475 27.2683 34.5564C28.2166 34.3154 28.9903 33.9581 29.2731 32.7949Z" fill="#FF8D16"/>
<path d="M32.6172 35.6116C33.2411 36.4092 32.8834 37.4727 31.985 38.1374C31.2696 38.6692 30.4294 39.0431 29.6225 39.417C29.4478 39.5001 28.9986 39.3505 28.9237 39.1927C28.8073 38.9517 28.799 38.4366 28.9487 38.3369C29.5144 37.963 30.1383 37.6555 30.7871 37.4312C31.4526 37.1986 32.1514 37.0656 32.4342 36.3095C32.5091 36.1184 32.5423 35.9024 32.6172 35.6116Z" fill="#FF8D16"/>
<path d="M27.9838 15.5126C27.3266 14.6069 26.8441 14.4573 25.6962 14.6651C25.0639 14.7814 24.3985 14.8063 23.7496 14.7897C23.2089 14.7814 22.9344 14.3576 22.951 13.8757C22.9677 13.3772 23.4335 13.2941 23.8328 13.3274C24.6896 13.3855 25.5547 13.4104 26.3866 13.5849C27.3765 13.801 28.0503 14.6983 27.9838 15.5126Z" fill="#FF8D16"/>
<path d="M25.4382 19.5922C24.3817 18.2212 22.926 18.6616 21.5617 18.6782C21.0626 18.6865 20.5469 18.753 20.2557 18.2212C20.1559 18.0301 20.0561 17.6479 20.1393 17.5814C20.3722 17.3987 20.8048 17.1577 20.9628 17.2574C21.6117 17.6479 22.3187 17.5067 22.9925 17.6313C23.6331 17.7476 24.2986 17.9637 24.8476 18.3126C25.197 18.5286 25.355 19.0604 25.5963 19.4509C25.5463 19.4925 25.4964 19.5423 25.4382 19.5922Z" fill="#FF8D16"/>
<path d="M25.3467 20.0991C24.5897 21.4119 22.6681 21.4949 20.7133 20.2652C20.9961 19.9661 21.254 19.6504 21.5534 19.3845C21.9361 19.0438 22.352 19.0272 22.7846 19.3347C23.9825 20.1738 23.9825 20.1738 25.3467 20.0991Z" fill="#FF8D16"/>
<path d="M25.2469 32.7201C26.7692 31.0833 28.8156 30.7426 29.9303 31.9973C28.7075 31.7563 27.9671 32.3545 27.3599 33.2103C27.0604 33.6258 26.6528 33.5925 26.2618 33.3931C25.9041 33.202 25.588 32.9445 25.2469 32.7201Z" fill="#FF8D16"/>
<path d="M182.343 22.0765C182.651 22.1098 182.951 22.143 183.258 22.1928C183.882 22.2842 184.514 22.4421 185.113 22.6831C187.185 22.3424 189.181 22.7578 191.136 23.8878C190.845 23.5804 190.554 23.2979 190.221 23.0653C188.424 21.8106 186.336 21.6943 184.232 21.6445C184.215 21.6112 184.198 21.578 184.19 21.5365C184.456 21.2955 184.722 21.0462 185.022 20.7637C183.932 20.9382 183.117 21.5198 182.343 22.0765Z" fill="#FF8D16"/>
<path d="M200.22 39.6663C200.062 39.0597 199.804 38.503 199.38 37.9547C199.546 38.636 199.737 39.2425 199.821 39.8657C200.004 41.1951 199.979 42.5079 199.272 43.721C198.723 44.6682 197.433 44.9424 196.593 44.261C195.603 43.4468 195.179 42.3417 195.037 41.1203C194.921 40.09 195.112 39.0763 195.428 38.1042C196.194 35.7611 196.56 33.3931 196.169 30.9337C195.853 28.9562 195.013 27.2446 193.532 25.8986C192.093 24.5858 190.404 23.7715 188.457 23.4475C187.684 23.3145 186.91 23.2314 186.145 23.1982C186.153 23.1982 186.153 23.2065 186.162 23.2065C186.577 23.4641 186.935 23.7549 187.26 24.0706C187.809 23.9792 188.158 24.2451 188.349 24.7104C188.524 25.1508 188.616 25.6244 188.774 26.1977H188.64C188.665 26.2642 188.699 26.3306 188.724 26.4054C188.749 26.4636 188.765 26.5217 188.782 26.5882C190.354 26.879 191.577 27.66 192.367 29.1058C192.875 30.0364 193.132 31.0417 193.316 32.0803C193.582 33.6341 193.582 35.1961 193.44 36.7582C193.299 38.2787 193.216 39.7909 193.557 41.2948C193.89 42.7904 194.472 44.153 195.653 45.2082C197.026 46.438 199.014 46.089 199.837 44.4438C200.586 42.8901 200.644 41.2948 200.22 39.6663ZM195.869 34.6644C195.828 34.9136 195.337 35.0881 195.054 35.2958C195.029 35.2543 194.996 35.2044 194.971 35.1629C194.971 34.465 194.971 33.7587 194.979 33.0608C194.979 32.9777 195.013 32.8614 195.071 32.8198C195.337 32.6121 195.628 32.421 196.027 32.1385C195.977 33.0442 196.002 33.8667 195.869 34.6644ZM191.02 25.882C191.02 26.4968 190.853 26.6131 190.279 26.4553C189.98 26.3722 189.664 26.2808 189.356 26.2559C189.106 26.2309 189.006 26.1312 189.006 25.8986C188.998 25.2505 188.799 24.6606 188.408 24.1371C188.424 24.0873 188.441 24.0374 188.457 23.9875C189.106 24.1122 189.805 24.1454 190.396 24.403C190.687 24.5276 190.803 25.0677 190.97 25.4416C191.028 25.5579 191.02 25.7241 191.02 25.882ZM191.153 26.6962C191.577 26.0232 191.361 25.3419 191.061 24.6523L191.169 24.5692C191.777 24.9846 192.384 25.3834 192.974 25.8238C193.099 25.9235 193.182 26.1645 193.174 26.3389C193.149 26.8624 193.066 27.3775 192.999 27.9509C192.301 27.4772 191.735 27.095 191.153 26.6962ZM193.174 28.2998C193.141 28.25 193.124 28.1669 193.141 28.1087C193.299 27.5271 193.457 26.9455 193.648 26.2725C194.122 27.0203 194.58 27.7681 195.062 28.4992C195.262 28.8067 195.229 29.0476 194.988 29.3135C194.763 29.5545 194.563 29.8203 194.364 30.053C193.956 29.4547 193.557 28.8731 193.174 28.2998ZM194.563 30.2441C194.863 29.9948 195.171 29.7622 195.512 29.5046C195.645 30.1278 195.803 30.8672 195.944 31.615C195.961 31.6815 195.878 31.7978 195.819 31.8477C195.545 32.072 195.262 32.288 194.963 32.5124C194.78 31.8144 194.605 31.1664 194.455 30.51C194.43 30.4352 194.497 30.3022 194.563 30.2441ZM194.896 35.8442C194.913 35.7445 195.012 35.6282 195.104 35.5783C195.304 35.4703 195.528 35.3955 195.819 35.2792C195.686 35.811 195.57 36.3012 195.437 36.7914C195.354 37.0905 195.245 37.3897 195.187 37.6971C195.129 38.0128 194.921 38.1125 194.572 38.1956C194.68 37.3564 194.78 36.6003 194.896 35.8442ZM194.663 40.2479C194.638 40.2479 194.613 40.2479 194.588 40.2479C194.588 39.7327 194.572 39.2176 194.605 38.7025C194.613 38.6111 194.788 38.5363 194.963 38.395C194.846 39.1096 194.755 39.6829 194.663 40.2479Z" fill="#FF8D16"/>
<path d="M202 43.5548C201.8 43.6545 201.642 43.7293 201.418 43.8373C201.476 42.591 201.393 41.4444 200.736 40.4141C200.811 41.6188 200.777 42.7904 200.361 43.937C199.854 45.3329 198.789 46.2635 197.541 46.2468C196.435 46.2302 195.553 45.6569 194.846 44.8676C193.773 43.6794 193.349 42.1921 193.141 40.6384C192.933 39.1179 193.141 37.6057 193.216 36.0852C193.307 34.0578 193.224 32.0471 192.459 30.1278C191.918 28.7568 191.086 27.6351 189.647 27.0867C189.381 26.987 189.115 26.9039 188.84 26.8375C188.89 27.2861 188.765 27.7348 188.541 28.1253C188.607 28.3081 188.649 28.5075 188.674 28.7153C188.699 28.9396 188.848 29.1473 188.94 29.3717C189.015 29.1224 188.99 28.9064 189.031 28.6986C189.065 28.5408 189.181 28.4078 189.264 28.2666C189.389 28.3995 189.605 28.5158 189.622 28.6571C189.697 29.1307 189.722 29.6126 189.73 30.0945C189.739 30.6844 189.68 31.2827 189.714 31.8726C189.739 32.2714 189.872 32.6619 190.271 32.9195C190.146 32.2964 190.105 31.7064 190.371 31.1497C190.479 30.9254 190.72 30.6014 190.903 30.6097C191.269 30.618 191.352 30.9919 191.386 31.3159C191.386 31.3408 191.386 31.3741 191.386 31.399C191.477 32.2964 191.277 33.1439 190.986 33.9913C190.845 34.4068 190.753 34.8388 190.637 35.2626C190.778 35.2543 190.828 35.2044 190.862 35.1546C191.011 34.9386 191.211 34.7059 191.46 34.8472C191.619 34.9386 191.743 35.2044 191.768 35.4122C191.885 36.2015 191.652 36.9327 191.311 37.6389C191.094 38.0959 190.87 38.5695 190.77 39.0597C190.679 39.5001 190.753 39.9737 190.753 40.439C190.936 40.2396 190.986 40.0235 191.111 39.8491C191.211 39.7078 191.386 39.6247 191.527 39.5167C191.627 39.6663 191.785 39.7992 191.826 39.9654C191.885 40.2146 191.885 40.4888 191.868 40.7464C191.818 41.6687 191.702 42.591 191.718 43.5132C191.743 44.6349 192.326 45.524 193.132 46.2801C193.008 45.6071 192.883 44.9424 193.108 44.2278C195.146 47.0611 195.944 47.9086 196.593 47.9834C196.493 47.7507 196.393 47.4932 196.294 47.2439C196.826 47.4018 197.259 47.6344 197.791 47.4932C197.658 47.3021 197.541 47.1359 197.45 47.0113C198.265 46.8949 199.039 46.8285 199.796 46.654C200.553 46.4878 201.226 46.0973 201.9 45.6154C201.493 45.5738 201.16 45.5323 200.727 45.4824C201.434 44.9839 201.9 44.4106 202 43.5548Z" fill="#FF8D16"/>
<path d="M140.892 32.8863C140.634 32.9528 140.359 32.986 140.093 33.0359C140.808 32.7367 141.291 32.2964 141.607 31.5984C141.823 31.1248 142.256 30.9503 142.78 31.1248C143.063 31.2162 143.329 31.3409 143.653 31.4821C143.537 30.9254 143.171 30.6346 142.73 30.4269C141.857 30.0198 141.041 30.4186 140.218 30.6346L140.235 30.618C139.968 30.8091 139.661 30.967 139.444 31.1996C139.195 31.4821 138.862 31.8394 138.879 32.1551C138.895 32.4625 139.295 32.745 139.536 33.0608C138.604 33.0525 138.479 33.7172 138.529 34.5314C138.554 34.9303 138.379 35.2294 137.905 35.2128C137.032 35.1712 136.491 35.6365 136.175 36.3926C135.975 36.8662 135.643 36.9908 135.102 36.9161C138.546 32.1302 139.178 26.9538 137.864 21.4949C137.631 20.9632 137.415 20.4231 137.215 19.8913C137.048 19.4676 136.89 19.0355 136.732 18.6034C136.658 18.4123 136.591 18.2129 136.516 18.0218C136.508 18.0052 136.508 17.9969 136.499 17.9803C136.042 16.9915 135.626 15.9945 135.127 15.0307C135.069 14.9143 135.01 14.8063 134.944 14.69C134.852 14.7066 134.761 14.7232 134.669 14.7399C134.611 14.7482 134.536 14.6568 134.353 14.5488C134.495 14.4906 134.628 14.4407 134.769 14.3826C134.603 14.1001 134.428 13.8176 134.228 13.5434C134.22 13.5351 134.22 13.5351 134.212 13.5268C134.129 13.4271 134.037 13.3274 133.946 13.2277C133.854 13.1363 133.763 13.0449 133.663 12.9535C133.621 12.9202 133.58 12.8787 133.538 12.8454C133.521 12.8288 133.505 12.8122 133.488 12.8039C133.422 12.7457 133.363 12.6876 133.297 12.6294C133.18 12.7125 133.072 12.7956 132.956 12.8704C132.215 12.3552 131.592 11.865 130.918 11.4662C128.405 9.98721 125.66 9.32251 122.774 9.13972C120.07 8.96523 117.425 9.3142 114.83 10.0537C112.076 10.843 109.547 12.1226 107.451 14.0835C105.762 15.6704 104.365 17.4651 103.142 19.3928C103.367 19.1851 103.591 18.9857 103.832 18.7946C104.198 18.3542 104.573 17.9387 104.98 17.5399C106.228 16.3102 107.809 15.2882 109.514 14.9974C110.163 14.7149 110.845 14.5072 111.544 14.366C112.509 13.7677 113.49 13.2858 114.53 12.9036C115.029 12.7208 115.911 13.2941 116.177 13.9339C116.294 14.2164 116.352 14.4407 116.344 14.6235C116.477 14.6734 116.61 14.7315 116.726 14.798C117.192 14.8313 117.658 14.8894 118.132 14.9725C118.723 15.0805 119.172 15.4461 119.463 15.9114C119.962 15.8865 120.461 15.8865 120.977 15.9197C122.699 16.0277 124.346 16.4016 125.918 17.0497C127.848 17.839 129.578 18.8943 130.668 20.7887C132.673 24.2534 132.981 27.9176 132.024 31.7314C131.442 34.0661 130.302 36.1184 128.514 37.7137C125.985 39.9737 122.924 40.7381 119.596 40.5803C119.388 40.5719 119.172 40.5719 118.947 40.5719C118.706 40.5886 118.465 40.6052 118.224 40.6052C118.698 41.1619 119.072 41.6687 119.513 42.0925C120.861 43.3886 122.466 44.2528 124.354 43.9869C125.927 43.7625 127.582 43.9536 129.079 43.2225C129.47 43.0314 129.861 42.8569 130.236 42.6325C131.184 42.0675 131.899 41.22 133.022 40.8378C134.004 40.4972 134.852 39.7244 135.709 39.0681C136.416 38.528 136.641 38.4947 137.231 39.1511C137.406 39.3422 137.631 39.5001 137.939 39.766C137.88 39.4087 137.847 39.2425 137.83 39.0681C137.781 38.5612 137.822 38.0544 138.33 37.7968C138.912 37.506 139.078 38.071 139.353 38.3701C139.844 38.9019 140.675 39.0265 141.208 38.6277C141.732 38.2289 141.832 37.5143 141.424 36.8413C141.233 36.5339 141.008 36.2431 140.792 35.9356C141.599 35.6282 141.69 35.4953 141.773 34.6727C141.848 33.875 142.273 33.5925 143.063 33.8252C143.337 33.9083 143.604 34.0329 143.92 34.1492C143.445 33.0442 142.073 32.5955 140.892 32.8863ZM130.294 42.0094C129.944 42.0675 129.761 42.1008 129.528 42.1423C129.578 42.2753 129.628 42.3999 129.736 42.699C128.913 42.7572 128.148 42.8153 127.349 42.8818C127.374 42.94 127.432 43.0563 127.515 43.2308C127.357 43.2557 127.224 43.2889 127.083 43.2972C125.81 43.372 124.546 43.4634 123.273 43.5133C122.99 43.5216 122.707 43.3886 122.433 43.2723C124.945 42.94 127.266 42.1008 129.495 40.9708C130.102 40.6633 130.693 40.5138 131.292 40.9625C131.309 41.0455 131.317 41.1203 131.334 41.2034C130.735 41.3364 130.144 41.4693 129.445 41.6355C129.712 41.7352 129.928 41.8349 130.294 42.0094ZM137.639 29.9616L137.498 29.9699C137.19 29.4298 136.874 28.8981 136.558 28.3497C137.024 28.1337 137.439 27.9259 137.93 27.6933C137.83 28.4992 137.731 29.2304 137.639 29.9616ZM137.406 22.384C137.481 22.4006 137.556 22.4172 137.622 22.4338C137.731 23.597 137.872 24.752 137.93 25.9152C137.997 27.2612 137.423 27.7515 135.992 27.6351C135.784 26.6879 135.576 25.7241 135.385 24.7603C135.368 24.6606 135.443 24.4612 135.526 24.4279C136.458 24.0291 136.957 23.2315 137.406 22.384ZM121.052 13.8591C121.035 13.9422 120.861 14.0419 120.744 14.0668C119.513 14.3078 118.282 14.5321 116.967 14.7814C116.976 13.8259 116.527 13.0781 115.595 12.3718C117.234 11.9647 118.706 11.5825 120.178 11.2418C120.802 11.1006 121.293 11.3997 121.318 12.0229C121.343 12.6294 121.168 13.2443 121.052 13.8591ZM125.777 14.1998C125.652 14.2746 125.486 14.341 125.344 14.3327C124.121 14.2081 122.907 14.0585 121.692 13.9173C122.108 12.3303 122.092 12.081 121.376 10.9677C122.424 10.8098 123.414 10.6602 124.396 10.5273C124.546 10.5024 124.704 10.519 124.862 10.519C125.885 10.5107 126.209 10.7932 126.509 11.9481C126.783 12.9867 126.525 13.776 125.777 14.1998ZM130.71 15.9529C130.585 16.0693 130.269 16.0776 130.086 16.0028C128.846 15.5043 127.624 14.9808 126.351 14.4407C127.657 13.344 127.266 12.0312 126.6 10.627C128.031 10.7184 129.271 11.1255 130.427 11.7902C130.984 12.1143 131.608 12.3635 131.666 13.1944C131.75 14.2746 131.525 15.2218 130.71 15.9529ZM133.23 19.1103C132.565 18.188 131.816 17.3239 131.059 16.3933C132.016 15.6704 132.357 14.5404 132.274 13.2526C132.332 13.211 132.39 13.1695 132.448 13.1279C133.022 13.7926 133.571 14.4823 134.179 15.1054C135.277 16.2354 135.06 17.4568 134.478 18.7032C134.378 18.9109 134.204 19.0937 134.021 19.2432C133.729 19.4925 133.505 19.4842 133.23 19.1103ZM133.896 19.9827C134.902 19.4011 135.451 18.4788 135.601 17.2076C135.801 17.5981 136.034 17.9803 136.208 18.3874C136.491 19.0604 136.757 19.7334 136.99 20.4231C137.398 21.578 136.774 23.0819 135.709 23.7134C135.31 23.946 135.152 23.8131 135.035 23.4475C134.669 22.3258 134.295 21.2041 133.896 19.9827Z" fill="#FF8D16"/>
<path d="M131.533 24.9763C131.192 23.1152 130.394 21.4534 129.071 20.0575C127.124 17.9969 124.637 17.0497 121.917 16.6177C121.293 16.518 120.661 16.493 120.037 16.4349C120.02 16.5013 120.004 16.5595 119.987 16.626C121.493 16.9666 122.092 18.1963 122.765 19.5008C122.774 19.5008 122.774 19.5008 122.782 19.5008C122.957 19.2516 123.14 19.0937 123.165 18.9192C123.223 18.4124 123.481 18.4373 123.864 18.5536C124.812 18.8527 125.095 19.667 125.269 20.4813C125.561 21.819 125.735 23.1816 125.976 24.5277C125.993 24.644 126.085 24.752 126.184 24.9514C126.426 23.8463 125.893 22.7496 126.767 21.686C127.807 23.5057 126.675 25.3253 127.199 27.0286C127.407 26.9289 127.574 26.8375 127.757 26.771C128.522 26.4885 128.971 26.7378 128.946 27.5354C128.93 28.1171 128.821 28.7402 128.572 29.2554C128.031 30.3355 127.216 31.2162 126.176 31.8643C125.91 32.0305 125.644 32.205 125.386 32.3795L125.452 32.5124C126.068 32.2881 126.684 32.0637 127.374 31.8145C127.349 32.0804 127.382 32.2715 127.307 32.3795C126.692 33.227 125.818 33.6507 124.92 34.0329C124.995 34.2074 125.061 34.3736 125.111 34.5481C125.444 34.4733 125.777 34.4068 126.11 34.3321C126.134 34.7724 125.81 35.2294 125.303 35.6116C125.353 36.7084 124.978 37.7885 124.18 38.6942C123.847 39.0681 123.456 39.3755 123.032 39.6081C126.858 38.7939 129.42 36.3677 130.918 32.7866C131.949 30.2607 132.016 27.6352 131.533 24.9763Z" fill="#FF8D16"/>
<path d="M123.481 6.81327C123.83 6.67202 124.055 6.58062 124.413 6.43107C124.088 6.34798 123.913 6.28151 123.747 6.26489C121.676 6.09871 119.629 6.19011 117.65 6.88805C117.417 6.97114 117.15 6.94621 116.901 6.97114C116.884 6.89636 116.868 6.82989 116.851 6.75511C117.084 6.59724 117.325 6.43107 117.558 6.2732C117.275 6.19842 117.009 6.21504 116.743 6.26489C115.237 6.54739 114.031 7.39489 112.858 8.31717C112.384 8.69106 111.852 8.99018 111.269 9.37239C111.103 8.42518 111.918 8.18423 112.151 7.5943C111.602 7.80202 111.02 7.97651 110.604 8.33378C109.639 9.17297 108.749 10.0953 107.842 11.0092C107.26 11.5991 106.702 12.2057 105.821 12.563C105.771 11.2502 106.444 10.3528 106.993 9.34746C106.711 9.58841 106.42 9.82106 106.153 10.0786C104.332 11.8484 103.009 13.9755 101.886 16.2188C101.22 17.5399 100.68 18.9275 100.031 20.2652C99.8894 20.556 99.5317 20.7305 99.2655 20.9632C99.1574 20.581 99.0409 20.1988 98.9578 19.8166C98.9411 19.7252 99.0243 19.6088 99.0576 19.5008C99.1324 19.2349 99.2073 18.9608 99.2822 18.6949C99.1907 18.6616 99.0992 18.6367 99.0077 18.6035C98.7165 19.3845 98.3255 20.1489 98.1758 20.9549C98.0177 21.7857 98.1176 22.6665 98.0677 23.5306C98.0427 23.9211 98.0178 24.3199 97.9928 24.7104C98.1093 24.6274 98.2257 24.536 98.3339 24.4612L98.3255 24.4529C98.7664 24.1538 99.2489 23.9211 99.748 23.7466C100.43 22.4089 101.112 21.0795 101.811 19.7584C103.516 16.5346 105.804 13.8176 108.874 11.7986C111.71 9.93738 114.805 8.80739 118.182 8.37533C121.002 8.01805 123.789 8.10114 126.567 8.71599C126.941 8.79908 127.316 8.85724 127.69 8.92371C126.492 7.85187 125.045 7.32011 123.481 6.81327Z" fill="#FF8D16"/>
<path d="M140.243 30.618C140.043 30.618 139.844 30.6346 139.652 30.618C139.245 30.5765 138.953 30.1444 139.07 29.7788C139.378 28.815 141.008 27.9093 141.965 28.2002C142.256 28.2916 142.506 28.5076 142.772 28.6654C142.747 28.7236 142.722 28.7818 142.697 28.8399C142.547 28.8067 142.406 28.7485 142.256 28.7319C141.732 28.6571 141.366 28.7402 141.133 29.3468C140.95 29.8287 140.534 30.2109 140.218 30.6429C140.218 30.6346 140.243 30.618 140.243 30.618Z" fill="#FF8D16"/>
</g>
<defs>
<clipPath id="clip0_7_18024">
<rect width="202" height="48" fill="white"/>
</clipPath>
</defs>
</svg>
