<svg width="211" height="112" viewBox="0 0 211 112" fill="none" xmlns="http://www.w3.org/2000/svg">
<g filter="url(#filter0_d_107_2)">
<path d="M31 27C31 21.4772 35.4772 17 41 17H170C175.523 17 180 21.4772 180 27L180.499 27.025C185.821 27.2911 190 31.6838 190 37.0125V87H21V37.0125C21 31.6838 25.1785 27.2911 30.5006 27.025L31 27Z" fill="#180F10"/>
</g>
<g filter="url(#filter1_d_107_2)">
<path d="M190 88V37.0125C190 31.6837 185.821 27.2911 180.499 27.025L180 27V27C180 21.4772 175.523 17 170 17H41C35.4772 17 31 21.4772 31 27V27L30.5006 27.025C25.1785 27.2911 21 31.6837 21 37.0125V88" stroke="#FF8D16" stroke-width="2"/>
</g>
<defs>
<filter id="filter0_d_107_2" x="1" y="1" width="209" height="110" filterUnits="userSpaceOnUse" color-interpolation-filters="sRGB">
<feFlood flood-opacity="0" result="BackgroundImageFix"/>
<feColorMatrix in="SourceAlpha" type="matrix" values="0 0 0 0 0 0 0 0 0 0 0 0 0 0 0 0 0 0 127 0" result="hardAlpha"/>
<feOffset dy="4"/>
<feGaussianBlur stdDeviation="10"/>
<feComposite in2="hardAlpha" operator="out"/>
<feColorMatrix type="matrix" values="0 0 0 0 0 0 0 0 0 0 0 0 0 0 0 0 0 0 0.5 0"/>
<feBlend mode="normal" in2="BackgroundImageFix" result="effect1_dropShadow_107_2"/>
<feBlend mode="normal" in="SourceGraphic" in2="effect1_dropShadow_107_2" result="shape"/>
</filter>
<filter id="filter1_d_107_2" x="0" y="0" width="211" height="112" filterUnits="userSpaceOnUse" color-interpolation-filters="sRGB">
<feFlood flood-opacity="0" result="BackgroundImageFix"/>
<feColorMatrix in="SourceAlpha" type="matrix" values="0 0 0 0 0 0 0 0 0 0 0 0 0 0 0 0 0 0 127 0" result="hardAlpha"/>
<feOffset dy="4"/>
<feGaussianBlur stdDeviation="10"/>
<feComposite in2="hardAlpha" operator="out"/>
<feColorMatrix type="matrix" values="0 0 0 0 0 0 0 0 0 0 0 0 0 0 0 0 0 0 0.5 0"/>
<feBlend mode="normal" in2="BackgroundImageFix" result="effect1_dropShadow_107_2"/>
<feBlend mode="normal" in="SourceGraphic" in2="effect1_dropShadow_107_2" result="shape"/>
</filter>
</defs>
</svg>
