<svg width="50" height="50" viewBox="0 0 50 50" fill="none" xmlns="http://www.w3.org/2000/svg">
<g clip-path="url(#clip0_5_21)">
<path d="M0 42.6758C0 29.8535 0 17.0215 0 4.19922C0.537109 3.18359 1.44531 2.61719 2.46094 2.1875C2.85156 2.02148 3.24219 1.875 3.64258 1.74805C6.81641 0.78125 10.0977 0.449219 13.3887 0.185547C14.043 0.136719 14.6973 0.185547 15.332 0C15.5566 0 15.791 0 16.0156 0C16.2109 0.166016 16.4062 0.136719 16.6016 0C18.0371 0 19.4629 0 20.8984 0C21.0938 0.136719 21.2891 0.166016 21.4844 0C21.6797 0 21.875 0 22.0703 0C22.7441 0.195312 23.4277 0.136719 24.1113 0.185547C26.9336 0.400391 29.7363 0.693359 32.4902 1.36719C33.8965 1.70898 35.2734 2.11914 36.4746 2.98828C37.1582 3.48633 37.5391 4.12109 37.5098 5.00977C37.4707 6.28906 37.4707 7.57812 37.5098 8.85742C37.5391 9.67773 37.3047 10.3516 36.6992 10.8984C35.6152 11.6992 34.3652 12.1484 33.0762 12.5488C34.3066 12.6953 35.498 13.0176 36.709 13.2617C36.7773 13.3008 36.8457 13.3398 36.9238 13.3691C43.9844 15.8691 48.2617 20.7812 49.7266 28.1348C49.8242 28.6133 49.7754 29.1211 49.9902 29.5801C49.9902 30.7227 49.9902 31.8555 49.9902 32.998C49.8535 33.0371 49.8926 33.1445 49.8828 33.2324C49.7852 33.9941 49.6875 34.7461 49.4922 35.4883C47.4414 43.0566 42.6172 47.793 34.9609 49.5996C34.248 49.7656 33.5156 49.8633 32.793 49.9902C31.6895 49.9902 30.5762 49.9902 29.4727 49.9902C29.4238 49.834 29.2871 49.9023 29.1797 49.8828C27.5293 49.6777 25.9277 49.2969 24.375 48.6914C22.7051 48.0371 21.1816 47.1191 19.7266 46.0645C18.0664 44.707 16.6016 43.1348 15.4199 41.3086C15.1074 40.7422 14.7852 40.1855 14.4824 39.6094C14.1504 38.9746 13.8574 38.3301 13.6426 37.6465C13.4766 37.1191 13.0371 37.3047 12.6953 37.3145C12.3633 37.3145 12.5098 37.6367 12.5098 37.8125C12.4902 38.3496 12.5 38.8867 12.5 39.4141C12.5 40.4004 12.5 40.4199 13.4863 40.4199C13.9551 40.4199 14.1504 40.5762 14.0625 41.0449C14.0527 41.123 14.0625 41.2109 14.0625 41.2891C14.0625 42.4609 14.0723 43.6328 14.043 44.8047C14.0332 45.1465 14.1797 45.2051 14.4629 45.2051C15.0977 45.2148 15.7324 45.2539 16.3672 45.2734C17.1582 45.3027 17.1582 45.3027 17.1875 46.0938C17.1777 46.1621 17.1582 46.2305 17.168 46.2891C17.2754 46.8164 17.0117 46.8848 16.5527 46.8652C14.9316 46.7969 13.3105 46.7383 11.6895 46.5723C9.16992 46.3086 6.66016 45.9961 4.21875 45.293C2.59766 44.8242 0.917969 44.3555 0 42.6758ZM12.5293 20.8789C12.4609 21.6602 12.4609 21.6504 13.2031 21.6797C13.5059 21.6895 13.8086 21.7188 14.1211 21.7578C15.0781 21.8652 15.1074 21.8457 15.5273 20.9961C16.0645 20.2637 16.5918 19.5215 17.2363 18.7793C15.6641 18.6914 14.1992 18.6133 12.7344 18.5254C12.4902 18.5059 12.5098 18.6426 12.5195 18.7891C12.5195 19.4922 12.5195 20.1855 12.5293 20.8789ZM11.7188 27.832C10.1562 27.627 8.59375 27.4219 7.03125 27.207C5.17578 26.7969 3.31055 26.416 1.57227 25.4883C1.57227 26.3281 1.5918 27.0898 1.5625 27.8613C1.55273 28.1934 1.67969 28.418 1.94336 28.5937C2.37305 28.8965 2.8418 29.1113 3.33008 29.2871C6.04492 30.2637 8.86719 30.6445 11.7188 30.918C12.4707 31.0059 12.4609 31.0059 12.5293 30.2734C12.5684 29.8047 12.627 29.3457 12.6953 28.877C12.832 27.8125 12.8418 27.8223 11.7188 27.832ZM4.69727 17.3145C3.64258 17.002 2.59766 16.6797 1.5625 16.123C1.5625 16.6016 1.5625 17.0215 1.5625 17.4316C1.5625 19.1895 1.63086 19.2871 3.29102 19.9121C3.31055 19.9219 3.32031 19.9219 3.33984 19.9219C5.56641 20.7324 7.88086 21.123 10.2148 21.3867C10.9668 21.4746 10.9668 21.4648 10.9277 20.6934C10.9375 20.0977 10.8984 19.4922 10.957 18.8965C10.9961 18.4277 10.8203 18.3008 10.3906 18.2617C8.45703 18.1055 6.57227 17.7637 4.69727 17.3145ZM4.69727 7.93945C3.64258 7.63672 2.58789 7.30469 1.5625 6.74805C1.5625 7.19727 1.5625 7.57812 1.5625 7.96875C1.5625 9.80469 1.57227 9.81445 3.29102 10.498C3.33984 10.5176 3.37891 10.5273 3.42773 10.5469C5.60547 11.3477 7.87109 11.748 10.166 12.0215C10.957 12.1094 10.957 12.1094 10.918 11.3184C10.9277 10.7031 10.8887 10.0879 10.9473 9.47266C10.9863 9.0332 10.8105 8.93555 10.4297 8.89648C8.49609 8.73047 6.58203 8.38867 4.69727 7.93945ZM13.291 25.7422C13.6035 24.9512 13.9062 24.1602 14.2285 23.3496C13.916 23.2422 13.5937 23.2324 13.2715 23.2617C12.0312 23.1348 10.7812 23.0176 9.54102 22.8809C8.10547 22.7344 6.68945 22.4414 5.27344 22.168C4.12109 21.8066 2.92969 21.5332 1.8457 20.9473C1.5625 20.8008 1.55273 20.9863 1.55273 21.1914C1.55273 21.8066 1.58203 22.4316 1.54297 23.0371C1.51367 23.4863 1.66992 23.7891 2.06055 23.9941C2.39258 24.1699 2.71484 24.3555 3.05664 24.4922C4.30664 25.0098 5.61523 25.3223 6.93359 25.5664C8.75 25.9082 10.5762 26.1621 12.4219 26.2695C13.1934 26.3281 13.1934 26.3477 13.291 25.7422ZM12.4805 16.1035C12.4805 15.459 12.4707 14.8047 12.4902 14.1602C12.5 13.8867 12.4023 13.7891 12.1387 13.7793C11.6211 13.75 11.1035 13.7012 10.5859 13.6426C8.63281 13.4277 6.69922 13.125 4.79492 12.6758C3.7207 12.3145 2.62695 12.041 1.5625 11.4258C1.5625 11.9727 1.63086 12.4512 1.55273 12.9004C1.34766 14.1016 1.93359 14.7168 2.98828 15.0586C3.04688 15.0781 3.10547 15.1074 3.16406 15.1367C5.9082 16.2109 8.80859 16.5918 11.709 16.8848C12.5293 16.9629 12.5293 16.9336 12.4805 16.1035ZM14.082 16.3086C14.0332 17.0703 14.0332 17.0703 14.8145 17.0996C15.8496 17.1289 16.8945 17.1191 17.9199 17.207C18.6328 17.2656 19.1602 17.002 19.6387 16.5332C21.084 15.625 22.5293 14.7168 24.0527 13.9258C23.5352 13.916 23.0273 13.9551 22.5293 13.9746C19.834 14.1211 17.1289 14.0918 14.4336 13.9453C14.1797 13.9355 14.0527 13.9551 14.0625 14.2578C14.082 14.9414 14.0723 15.625 14.082 16.3086ZM26.582 11.3281C26.5723 11.4746 26.582 11.6211 26.5625 11.7676C26.5137 12.0996 26.6602 12.1387 26.9434 12.0996C28.8574 11.8457 30.7617 11.5723 32.627 11.0352C33.6035 10.752 34.5801 10.4395 35.4492 9.89258C35.7422 9.70703 36.0352 9.51172 35.918 9.08203C35.918 8.33008 35.918 7.56836 35.918 6.76758C34.6582 7.43164 33.3594 7.8125 32.0312 8.11523C30.4102 8.47656 28.7793 8.75 27.1289 8.89648C26.709 8.93555 26.5039 9.0332 26.5527 9.52148C26.6113 10.1172 26.5723 10.7227 26.582 11.3281ZM12.5293 11.5039C12.4609 12.2852 12.4609 12.2363 13.2129 12.3145C14.1992 12.4219 15.1855 12.4219 16.1719 12.4609C19.0137 12.5586 21.8457 12.4805 24.6875 12.2949C24.9512 12.2754 25.0293 12.168 25.0098 11.9336C25 11.7871 24.9902 11.6406 24.9805 11.4941C24.9902 10.8594 24.9707 10.2246 25 9.58984C25.0195 9.20898 24.8926 9.13086 24.5312 9.15039C22.4219 9.28711 20.3125 9.38477 18.1934 9.36523C16.4355 9.3457 14.6875 9.24805 12.9297 9.15039C12.6172 9.13086 12.4902 9.19922 12.5098 9.54102C12.5293 10.2051 12.5195 10.8594 12.5293 11.5039ZM14.2871 33.8281C14.7559 33.6719 15.1953 33.5059 15.6836 33.6621C16.377 33.8867 16.8555 34.3262 17.1875 34.9609C18.1055 36.7578 19.043 38.5449 19.9707 40.332C20.5859 41.5137 20.459 42.4316 19.5312 43.3887C19.3652 43.5547 19.3555 43.6328 19.5312 43.7988C21.2598 45.4004 23.2324 46.6016 25.4395 47.4121C25.6836 47.5 25.752 47.4707 25.8105 47.1875C26.0547 45.9668 26.875 45.3027 28.1055 45.3027C30.2051 45.3027 32.3047 45.3027 34.4043 45.3027C35.6152 45.3027 36.4648 45.9766 36.6895 47.1484C36.7578 47.4902 36.8457 47.4902 37.1191 47.3828C39.2871 46.582 41.2109 45.4004 42.9102 43.8477C43.1543 43.623 43.1348 43.5156 42.9102 43.291C42.1484 42.5391 41.9434 41.5234 42.4023 40.6055C43.3984 38.6523 44.4141 36.6992 45.4395 34.7656C45.8887 33.9062 47.0508 33.252 47.9883 33.7305C48.1738 33.8281 48.252 33.7695 48.2715 33.5742C48.3105 33.2227 48.3594 32.8613 48.3887 32.5098C48.4863 31.2305 48.457 29.9512 48.2227 28.6328C47.666 28.8965 47.1387 28.9746 46.5918 28.7402C45.9961 28.4766 45.5957 28.0371 45.3027 27.4609C44.4043 25.7129 43.5059 23.9648 42.5879 22.2168C41.9336 20.9668 42.0312 20.1172 42.998 19.0723C43.1445 18.916 43.1543 18.8379 42.998 18.6914C41.2598 17.0703 39.2773 15.8691 37.0508 15.0488C36.8359 14.9707 36.7578 15 36.709 15.2539C36.4355 16.5332 35.6445 17.168 34.3262 17.168C32.3535 17.168 30.3906 17.168 28.418 17.168C26.7773 17.168 26.084 16.6113 25.7422 14.9902C25.6348 15.0195 25.5273 15.0488 25.4199 15.0781C23.2617 15.8496 21.3574 17.0312 19.6582 18.5645C19.4043 18.7988 19.3457 18.916 19.6387 19.1895C20.3906 19.9023 20.5859 20.9668 20.1172 21.875C19.1309 23.8184 18.125 25.752 17.0996 27.6758C16.5625 28.6816 15.6543 29.0332 14.5605 28.7305C14.3945 28.6816 14.2969 28.6621 14.2676 28.8867C14.0234 30.5371 13.9746 32.168 14.2871 33.8281ZM18.75 7.8125C19.9707 7.8125 21.1914 7.7832 22.4121 7.73437C25.3027 7.61719 28.1836 7.35352 31.0254 6.73828C32.5488 6.40625 34.0723 6.03516 35.4297 5.21484C36.0938 4.81445 36.0938 4.56055 35.4297 4.15039C34.5508 3.61328 33.5938 3.30078 32.627 3.02734C28.7891 1.97266 24.8438 1.68945 20.8984 1.5918C16.5527 1.47461 12.207 1.63086 7.91016 2.35352C6.06445 2.66602 4.23828 3.06641 2.54883 3.89648C2.17773 4.08203 1.62109 4.23828 1.61133 4.66797C1.60156 5.13672 2.16797 5.29297 2.54883 5.47852C4.22852 6.30859 6.03516 6.69922 7.86133 7.01172C11.4746 7.62695 15.1074 7.8125 18.75 7.8125ZM12.9785 35.4395C12.793 34.5898 12.6367 33.6914 12.5879 32.7832C12.5781 32.5684 12.4121 32.5391 12.2363 32.5293C11.25 32.4316 10.2637 32.3633 9.28711 32.2266C6.75781 31.875 4.23828 31.5039 1.91406 30.3613C1.5918 30.2051 1.5625 30.3516 1.5625 30.6152C1.57227 31.2695 1.58203 31.9141 1.5625 32.5684C1.55273 32.9004 1.68945 33.125 1.94336 33.3008C2.5293 33.7012 3.17383 33.9648 3.83789 34.1699C6.72852 35.0977 9.72656 35.4395 12.7344 35.7129C12.9297 35.7324 13.0078 35.6641 12.9785 35.4395ZM1.5625 39.5605C1.5625 40.3613 1.58203 41.084 1.55273 41.8164C1.5332 42.2656 1.70898 42.5488 2.08008 42.7734C2.85156 43.2324 3.70117 43.5156 4.56055 43.7695C6.97266 44.4629 9.44336 44.7949 11.9238 45.0391C12.3535 45.0781 12.5488 44.9805 12.5 44.502C12.4512 43.9844 12.4902 43.4668 12.4902 42.9395C12.4902 41.9824 12.4902 41.9824 11.5527 41.8848C11.377 41.8652 11.2012 41.8262 11.0254 41.8066C9.04297 41.6113 7.07031 41.3281 5.12695 40.8496C3.92578 40.5469 2.73438 40.1855 1.5625 39.5605ZM1.5625 34.8828C1.5625 35.3711 1.5625 35.8105 1.5625 36.2402C1.5625 37.9395 1.61133 38.0176 3.20312 38.6328C3.25195 38.6523 3.30078 38.6621 3.33984 38.6816C5.70312 39.5508 8.18359 39.8926 10.6641 40.2148C10.8789 40.2441 10.9473 40.1855 10.9473 39.9707C10.9375 39.1113 10.9375 38.2422 10.9473 37.3828C10.9473 37.1875 10.8984 37.0996 10.6836 37.0801C10.2148 37.041 9.74609 36.9727 9.27734 36.9043C6.66016 36.5332 4.04297 36.123 1.5625 34.8828ZM31.25 15.625C32.2363 15.625 33.2324 15.625 34.2188 15.625C34.4629 15.625 34.6973 15.5957 34.9219 15.4687C35.2539 15.2734 35.1465 14.9609 35.1465 14.6777C35.1465 14.3945 34.9023 14.4727 34.7461 14.4336C32.4121 13.9258 30.0781 13.9258 27.7441 14.4336C27.5879 14.4629 27.3438 14.3945 27.3438 14.668C27.3438 14.9414 27.2363 15.2637 27.5684 15.459C27.7832 15.5859 28.0176 15.6152 28.2715 15.6152C29.2676 15.625 30.2539 15.625 31.25 15.625ZM31.25 46.875C30.2441 46.875 29.2383 46.875 28.2227 46.875C27.9883 46.875 27.7734 46.9141 27.5684 47.0312C27.2363 47.2266 27.3535 47.5391 27.3438 47.8223C27.3438 48.0957 27.5879 48.0273 27.7441 48.0664C30.0781 48.5742 32.4121 48.5742 34.7461 48.0664C34.9023 48.0371 35.1465 48.1055 35.1465 47.8223C35.1465 47.5391 35.2539 47.2266 34.9219 47.0312C34.7168 46.9141 34.502 46.875 34.2676 46.875C33.2617 46.875 32.2559 46.875 31.25 46.875ZM18.7598 20.9082C18.7695 20.5762 18.5645 20.1855 18.3203 20.1367C18.0469 20.0781 17.998 20.3516 17.8809 20.498C16.4062 22.3145 15.3711 24.3457 14.707 26.582C14.5898 26.9727 14.6777 27.1289 15.0391 27.2559C15.5078 27.4121 15.6445 27.0801 15.8008 26.7871C16.748 24.9805 17.6855 23.1641 18.623 21.3477C18.7012 21.2012 18.7695 21.0547 18.7598 20.9082ZM18.75 41.5918C18.7793 41.4258 18.6816 41.2695 18.6035 41.1133C17.6758 39.3262 16.748 37.5391 15.8203 35.752C15.7324 35.5762 15.6348 35.4102 15.4785 35.2832C15.2051 35.0488 14.9902 35.2832 14.7656 35.3613C14.502 35.4492 14.6289 35.6543 14.6777 35.8105C15.3223 38.1445 16.416 40.2441 17.9492 42.1191C18.2324 42.4609 18.3789 42.4512 18.6328 42.0801C18.7305 41.9434 18.7695 41.7871 18.75 41.5918ZM47.8906 26.9629C47.8516 26.8066 47.8223 26.7285 47.8027 26.6504C47.168 24.3555 46.0938 22.2852 44.5801 20.4395C44.4824 20.3125 44.4141 20.0586 44.209 20.1367C44.0234 20.2051 43.8672 20.3711 43.7988 20.5859C43.7109 20.8691 43.7793 21.123 43.9062 21.377C44.8438 23.1738 45.7715 24.9707 46.6992 26.7676C46.7969 26.9531 46.9043 27.1289 47.0898 27.2559C47.3438 27.4316 47.5098 27.1875 47.7148 27.1387C47.8418 27.1094 47.9102 27.0215 47.8906 26.9629ZM43.75 41.6113C43.7207 41.9629 43.916 42.2266 44.1992 42.3535C44.4336 42.4512 44.5215 42.1387 44.6387 41.9922C46.0938 40.1758 47.1484 38.1445 47.793 35.8984C47.9102 35.498 47.8223 35.3516 47.4609 35.2246C47.0117 35.0684 46.875 35.3906 46.7285 35.6641C45.7715 37.4902 44.8242 39.3164 43.877 41.1426C43.8086 41.2988 43.7402 41.4453 43.75 41.6113Z" fill="#020102"/>
<path d="M21.4844 0C21.2891 0.166016 21.0938 0.136719 20.8984 0C21.0938 0 21.2891 0 21.4844 0Z" fill="#860024"/>
<path d="M16.6016 0C16.4062 0.136719 16.2109 0.166016 16.0156 0C16.2109 0 16.4062 0 16.6016 0Z" fill="#860024"/>
<path d="M14.2871 33.8281C13.9746 32.168 14.0234 30.5371 14.248 28.9063C14.2773 28.6816 14.375 28.7109 14.541 28.75C15.6348 29.0625 16.543 28.7012 17.0801 27.6953C18.1055 25.7715 19.1016 23.8379 20.0977 21.8945C20.5664 20.9863 20.3711 19.9219 19.6191 19.209C19.3359 18.9355 19.3848 18.8184 19.6387 18.584C21.3379 17.0508 23.2422 15.8691 25.4004 15.0977C25.5078 15.0586 25.6152 15.0391 25.7227 15.0098C26.0645 16.6211 26.7578 17.1875 28.3984 17.1875C30.3711 17.1875 32.334 17.1875 34.3066 17.1875C35.6152 17.1875 36.416 16.5625 36.6895 15.2734C36.7383 15.0195 36.8164 14.9902 37.0313 15.0684C39.2578 15.8887 41.25 17.0898 42.9785 18.7109C43.1348 18.8574 43.125 18.9355 42.9785 19.0918C42.0117 20.127 41.9141 20.9863 42.5684 22.2363C43.4766 23.9746 44.3848 25.7227 45.2832 27.4805C45.5762 28.0469 45.9766 28.4961 46.5723 28.7598C47.1191 29.0039 47.6465 28.916 48.2031 28.6523C48.4375 29.9707 48.4668 31.25 48.3691 32.5293C48.3398 32.8809 48.2813 33.2422 48.252 33.5938C48.2324 33.7891 48.1543 33.8477 47.9688 33.75C47.0313 33.2617 45.8691 33.9258 45.4199 34.7852C44.3945 36.7285 43.3789 38.6719 42.3828 40.625C41.9238 41.543 42.1289 42.5586 42.8906 43.3105C43.1152 43.5352 43.1348 43.6426 42.8906 43.8672C41.1914 45.4199 39.2578 46.6016 37.0996 47.4023C36.8262 47.5 36.7383 47.5 36.6699 47.168C36.4453 45.9961 35.5957 45.3223 34.3848 45.3223C32.2852 45.3223 30.1855 45.3223 28.0859 45.3223C26.8555 45.3223 26.0254 45.9863 25.791 47.207C25.7324 47.4902 25.6641 47.5195 25.4199 47.4316C23.2031 46.6211 21.2402 45.4199 19.5117 43.8184C19.3359 43.6523 19.3457 43.5742 19.5117 43.4082C20.4395 42.4414 20.5566 41.5332 19.9512 40.3516C19.0234 38.5645 18.0957 36.7773 17.168 34.9805C16.8359 34.3457 16.3574 33.8965 15.6641 33.6816C15.1953 33.5059 14.7559 33.6621 14.2871 33.8281ZM20.2051 27.3633C20.0586 27.8711 19.9121 28.3691 19.7559 28.877C18.8379 28.7598 19.0527 28.6133 18.8574 29.5605C18.8574 29.5801 18.8574 29.5898 18.8574 29.6094C18.7793 30.4102 18.7793 30.4102 19.5508 30.4883C19.5508 30.9961 19.5508 31.5039 19.5508 32.0117C19.4824 32.0215 19.4238 32.041 19.3555 32.0313C18.8867 31.9824 18.6914 32.1484 18.8281 32.6367C18.8965 32.9004 18.8965 33.1836 18.9453 33.457C20.1074 40.1758 26.5527 44.8828 33.4766 43.584C40.3711 42.2852 44.6777 36.0352 43.5645 29.1016C42.666 23.5352 37.8125 19.1211 32.168 18.7598C26.8066 18.4082 21.9336 21.3672 19.7754 26.2891C19.4434 27.041 19.4434 27.041 20.2051 27.3633ZM39.8438 43.7891C39.8438 42.9688 39.8437 42.9688 39.043 42.9688C38.9453 42.9688 38.8477 42.9785 38.75 42.9688C38.3594 42.9004 38.2227 43.0762 38.2812 43.4473C38.291 43.5254 38.2812 43.6133 38.2812 43.6914C38.2812 44.5313 38.2812 44.5313 39.1113 44.5313C39.8438 44.5313 39.8438 44.5313 39.8438 43.7891ZM23.4473 42.9688C22.6562 42.9688 22.6562 42.9688 22.6562 43.5547C22.6562 44.5313 22.6562 44.5313 23.252 44.5313C24.2188 44.5313 24.2187 44.5312 24.2187 43.9258C24.2187 42.9688 24.2188 42.9688 23.4473 42.9688ZM24.2187 18.7988C24.2187 17.9688 24.2188 17.9688 23.3691 17.9688C23.2715 17.9688 23.1738 17.9785 23.0762 17.9688C22.7344 17.9199 22.5977 18.0469 22.6465 18.3887C22.666 18.4961 22.6465 18.6133 22.6465 18.7305C22.6465 19.5313 22.6465 19.5313 23.4668 19.5313C24.2188 19.5313 24.2187 19.5313 24.2187 18.7988ZM46.875 31.2402C46.875 30.4688 46.875 30.4688 46.3086 30.4688C45.3125 30.4688 45.3125 30.4688 45.3125 31.0938C45.3125 32.0313 45.3125 32.0313 45.9473 32.0313C46.875 32.0313 46.875 32.0313 46.875 31.2402ZM15.625 31.2598C15.625 32.0313 15.625 32.0313 16.1914 32.0313C17.1875 32.0313 17.1875 32.0313 17.1875 31.4063C17.1875 30.4688 17.1875 30.4688 16.5527 30.4688C15.625 30.4688 15.625 30.4688 15.625 31.2598ZM39.0625 17.9688C38.2812 17.9688 38.2812 17.9688 38.2812 18.5742C38.2812 19.5313 38.2812 19.5313 38.8965 19.5313C39.8437 19.5313 39.8438 19.5313 39.8438 18.9063C39.8438 17.9688 39.8438 17.9688 39.0625 17.9688Z" fill="#E00038"/>
<path d="M18.75 7.81246C15.1074 7.81246 11.4648 7.62692 7.87109 7.01168C6.04492 6.69918 4.23828 6.29879 2.55859 5.47848C2.17774 5.29293 1.61133 5.13668 1.62109 4.66793C1.63086 4.23824 2.17774 4.08199 2.55859 3.89645C4.24805 3.06637 6.07422 2.66598 7.91016 2.35348C12.207 1.62106 16.543 1.47457 20.8887 1.58199C24.8438 1.67965 28.7793 1.96285 32.6172 3.02731C33.5938 3.30074 34.5508 3.61324 35.4102 4.15035C36.0742 4.56051 36.084 4.81442 35.4102 5.21481C34.0527 6.02535 32.5391 6.40621 31.0059 6.73824C28.1738 7.35348 25.293 7.60738 22.3926 7.73434C21.1914 7.78317 19.9707 7.81246 18.75 7.81246ZM18.3984 2.34371C17.207 2.30465 15.6152 2.37301 14.0234 2.4609C11.9629 2.57809 9.90234 2.71481 7.87109 3.12496C7.2168 3.25192 6.5625 3.3984 5.99609 3.77926C5.2832 4.26754 5.29297 5.10739 5.99609 5.59567C6.43555 5.8984 6.93359 6.03512 7.44141 6.15231C9.56055 6.64059 11.7188 6.78707 13.877 6.90426C18.7695 7.15817 23.6621 7.09957 28.5352 6.43551C29.5508 6.29879 30.5762 6.17184 31.4746 5.6152C32.2461 5.13668 32.2363 4.23824 31.4746 3.7402C31.2305 3.58395 30.957 3.47653 30.6836 3.37887C30.0098 3.14449 29.2969 3.01754 28.5938 2.92965C25.332 2.4902 22.0703 2.33395 18.3984 2.34371Z" fill="#E00038"/>
<path d="M12.9785 35.4395C13.0078 35.6739 12.9297 35.7325 12.7344 35.7129C9.72656 35.4395 6.72852 35.1075 3.83789 34.17C3.17383 33.9551 2.51953 33.7012 1.94336 33.3008C1.67969 33.125 1.55273 32.9004 1.5625 32.5684C1.58203 31.9141 1.57227 31.2696 1.5625 30.6153C1.5625 30.3516 1.5918 30.1953 1.91406 30.3614C4.23828 31.5039 6.75781 31.875 9.28711 32.2266C10.2637 32.3633 11.25 32.4317 12.2363 32.5293C12.4121 32.5489 12.5684 32.5684 12.5879 32.7832C12.6367 33.6914 12.793 34.5899 12.9785 35.4395Z" fill="#860024"/>
<path d="M1.5625 39.5605C2.73437 40.1855 3.92578 40.5566 5.13672 40.8496C7.08008 41.3281 9.04297 41.6113 11.0352 41.8066C11.2109 41.8262 11.3867 41.8652 11.5625 41.8848C12.5 41.9727 12.5 41.9727 12.5 42.9395C12.5 43.457 12.4609 43.9844 12.5098 44.502C12.5488 44.9805 12.3633 45.0781 11.9336 45.0391C9.44336 44.7949 6.97266 44.4629 4.57031 43.7695C3.71094 43.5254 2.87109 43.2422 2.08984 42.7734C1.71875 42.5488 1.54297 42.2656 1.5625 41.8164C1.58203 41.084 1.5625 40.3613 1.5625 39.5605Z" fill="#860024"/>
<path d="M12.5293 11.504C12.5195 10.8497 12.5293 10.2051 12.5098 9.55084C12.5 9.21881 12.6172 9.14068 12.9297 9.16022C14.6875 9.25787 16.4355 9.36529 18.1934 9.37506C20.3125 9.39459 22.4219 9.28717 24.5312 9.16022C24.8926 9.14068 25.0195 9.20904 25 9.59967C24.9609 10.2344 24.9805 10.8692 24.9805 11.504C23.5059 11.5723 22.0312 11.6602 20.5664 11.6993C17.8809 11.7774 15.2051 11.6309 12.5293 11.504Z" fill="#E00038"/>
<path d="M1.5625 34.8828C4.04297 36.123 6.66016 36.5332 9.27734 36.9141C9.74609 36.9824 10.2148 37.041 10.6836 37.0898C10.8984 37.1094 10.9473 37.1875 10.9473 37.3926C10.9375 38.252 10.9375 39.1211 10.9473 39.9805C10.9473 40.1953 10.8887 40.2539 10.6641 40.2246C8.18359 39.9023 5.70312 39.5605 3.33984 38.6914C3.29102 38.6719 3.24219 38.6621 3.20312 38.6426C1.62109 38.0176 1.5625 37.9492 1.5625 36.25C1.5625 35.8105 1.5625 35.3711 1.5625 34.8828Z" fill="#E0DBC6"/>
<path d="M26.582 11.3281C26.5723 10.7227 26.6113 10.1172 26.5527 9.52148C26.5039 9.0332 26.7187 8.93555 27.1289 8.89648C28.7793 8.75 30.4102 8.47656 32.0312 8.11523C33.3594 7.8125 34.6582 7.43164 35.918 6.75781C35.918 7.55859 35.918 8.32031 35.918 9.07227C35.8496 9.08203 35.7812 9.0625 35.7227 9.0918C34.3652 9.88281 32.8613 10.2539 31.3379 10.5859C29.7754 10.9375 28.1836 11.1621 26.582 11.3281Z" fill="#FDFAE9"/>
<path d="M11.709 30.918C8.85742 30.6445 6.03516 30.2637 3.32031 29.2871C2.83203 29.1113 2.36328 28.8965 1.93359 28.5937C1.67969 28.418 1.54297 28.1934 1.55273 27.8613C1.57226 27.0996 1.5625 26.3379 1.5625 25.4883C3.30078 26.416 5.16601 26.7969 7.02148 27.207C7.25586 28.1348 7.8418 28.877 8.33984 29.6582C8.4082 29.7559 8.52539 29.7656 8.64258 29.7754C9.6582 29.9023 10.6836 30.0293 11.6992 30.166C11.6992 30.4199 11.709 30.6738 11.709 30.918Z" fill="#E0DBC6"/>
<path d="M14.082 16.3086C14.0723 15.625 14.082 14.9414 14.0625 14.2578C14.0527 13.955 14.1699 13.9257 14.4336 13.9453C17.1289 14.0918 19.834 14.1211 22.5293 13.9746C23.0273 13.9453 23.5352 13.916 24.0527 13.9257C22.5293 14.7168 21.084 15.625 19.6387 16.5332C19.5508 16.3964 19.4141 16.416 19.2871 16.416C17.5488 16.4453 15.8105 16.3476 14.082 16.3086Z" fill="#FDFAE9"/>
<path d="M4.79492 12.6758C6.70898 13.1348 8.64258 13.4277 10.5859 13.6426C11.1035 13.7012 11.6211 13.75 12.1387 13.7793C12.4121 13.7891 12.5 13.8867 12.4902 14.1602C12.4707 14.8047 12.4805 15.459 12.4805 16.1035C11.6309 16.1426 10.8008 16.0156 9.96094 15.918C8.30078 15.7227 6.66992 15.3906 5.04883 15.0293C4.91211 15 4.70703 14.9707 4.7168 14.7949C4.73633 14.082 4.58008 13.3691 4.79492 12.6758Z" fill="#E00038"/>
<path d="M5.2832 22.1777C6.69922 22.4512 8.11523 22.7441 9.55078 22.8906C10.791 23.0176 12.041 23.1445 13.2812 23.2715C13.2812 24.043 13.2715 24.8145 13.2715 25.5762C12.5293 25.5566 11.7871 25.459 11.0449 25.3906C9.43359 25.2539 7.8418 24.9609 6.25 24.6777C6.09375 24.6484 5.91797 24.6191 5.83984 24.3945C5.60547 23.6621 5.38086 22.9395 5.2832 22.1777Z" fill="#E00038"/>
<path d="M5.2832 22.1777C5.39062 22.9394 5.61523 23.6621 5.84961 24.3848C5.91797 24.6094 6.09375 24.6387 6.25977 24.668C7.85156 24.9609 9.44336 25.2539 11.0547 25.3809C11.7969 25.4394 12.5293 25.5469 13.2812 25.5664C13.291 25.625 13.3008 25.6836 13.3105 25.7422C13.2129 26.3379 13.2129 26.3281 12.4512 26.2793C10.6055 26.1719 8.7793 25.918 6.96289 25.5762C5.64453 25.332 4.33594 25.0195 3.08594 24.5019C2.74414 24.3555 2.42187 24.1699 2.08984 24.0039C1.70898 23.7988 1.55273 23.4961 1.57227 23.0469C1.61133 22.4316 1.58203 21.8164 1.58203 21.2012C1.58203 21.0059 1.5918 20.8105 1.875 20.957C2.92969 21.543 4.12109 21.8164 5.2832 22.1777Z" fill="#860024"/>
<path d="M4.79492 12.6758C4.57031 13.3789 4.72656 14.0918 4.7168 14.7949C4.7168 14.9609 4.91211 14.9902 5.04883 15.0293C6.67969 15.3906 8.31055 15.7227 9.96094 15.918C10.8008 16.0156 11.6309 16.1426 12.4805 16.1035C12.5293 16.9336 12.5293 16.9727 11.7188 16.8848C8.80859 16.5918 5.91797 16.2109 3.17383 15.1367C3.11523 15.1172 3.05664 15.0781 2.99805 15.0586C1.94336 14.7168 1.35742 14.1016 1.5625 12.9004C1.64063 12.4512 1.57227 11.9727 1.57227 11.4258C2.62695 12.041 3.73047 12.3145 4.79492 12.6758Z" fill="#860024"/>
<path d="M4.69727 7.93945C6.58203 8.38867 8.49609 8.73047 10.4297 8.90625C10.8105 8.94531 10.9863 9.04297 10.9473 9.48242C10.8887 10.0977 10.9277 10.7129 10.918 11.3281C10.1172 11.2305 9.31641 11.1523 8.52539 11.0352C7.36328 10.8594 6.21094 10.6348 5.06836 10.3418C4.76563 10.2637 4.66797 10.1074 4.67774 9.79492C4.70703 9.16992 4.69727 8.55469 4.69727 7.93945Z" fill="#FDFAE9"/>
<path d="M4.69727 17.3145C6.57227 17.7637 8.4668 18.0957 10.3809 18.2715C10.8105 18.3105 10.9961 18.4277 10.9473 18.9063C10.8887 19.502 10.9277 20.0977 10.918 20.7031C10.3418 20.6348 9.76562 20.5859 9.18945 20.5078C7.80273 20.3223 6.43555 20.0195 5.06836 19.7266C4.87305 19.6875 4.78516 19.5801 4.78516 19.3945C4.78516 18.7012 4.61914 18.0176 4.69727 17.3145Z" fill="#FDFAE9"/>
<path d="M4.69727 17.3145C4.62891 18.0078 4.78516 18.7012 4.79492 19.3945C4.79492 19.5801 4.88281 19.6875 5.07812 19.7266C6.44531 20.0195 7.8125 20.3223 9.19922 20.5078C9.77539 20.5859 10.3516 20.6348 10.9277 20.7031C10.9668 21.4746 10.9668 21.4844 10.2148 21.3965C7.88086 21.123 5.55664 20.7422 3.33984 19.9316C3.32031 19.9219 3.31055 19.9219 3.29102 19.9219C1.63086 19.2969 1.5625 19.1992 1.5625 17.4414C1.5625 17.0215 1.5625 16.6113 1.5625 16.1328C2.58789 16.6895 3.64258 17.002 4.69727 17.3145Z" fill="#E0DBC6"/>
<path d="M4.69727 7.93945C4.69727 8.55469 4.70703 9.16992 4.6875 9.78516C4.67773 10.0977 4.77539 10.2637 5.07813 10.332C6.2207 10.6152 7.37305 10.8398 8.53516 11.0254C9.32617 11.1426 10.127 11.2207 10.9277 11.3184C10.9668 12.0996 10.9668 12.1094 10.1758 12.0215C7.88086 11.7578 5.61523 11.3574 3.4375 10.5469C3.38867 10.5273 3.34961 10.5176 3.30078 10.498C1.5918 9.81445 1.57227 9.79492 1.57227 7.96875C1.57227 7.58789 1.57227 7.19727 1.57227 6.74805C2.58789 7.30469 3.64258 7.63672 4.69727 7.93945Z" fill="#E0DBC6"/>
<path d="M19.7461 46.084C18.8965 46.0937 18.0469 46.0938 17.1973 46.1035C17.168 45.3125 17.168 45.3125 16.377 45.2832C15.7422 45.2539 15.1074 45.2246 14.4727 45.2148C14.1797 45.2148 14.043 45.1562 14.0527 44.8145C14.082 43.6426 14.0625 42.4707 14.0723 41.2988C14.5215 41.3086 14.9707 41.3086 15.4199 41.3184C16.6016 43.1348 18.0664 44.707 19.7461 46.084Z" fill="#E0DBC6"/>
<path d="M31.25 15.625C30.2637 15.625 29.2676 15.625 28.2813 15.625C28.0371 15.625 27.8027 15.5957 27.5781 15.4688C27.2461 15.2734 27.3535 14.9609 27.3535 14.6777C27.3535 14.4043 27.5977 14.4727 27.7539 14.4434C30.0879 13.9355 32.4219 13.9355 34.7559 14.4434C34.9121 14.4727 35.1563 14.4043 35.1563 14.6875C35.1563 14.9707 35.2539 15.2832 34.9316 15.4785C34.707 15.6055 34.4727 15.6348 34.2285 15.6348C33.2324 15.625 32.2363 15.625 31.25 15.625Z" fill="#FDFAE9"/>
<path d="M31.25 46.875C32.2559 46.875 33.2617 46.875 34.2773 46.875C34.5117 46.875 34.7266 46.9141 34.9316 47.0313C35.2637 47.2266 35.1563 47.5391 35.1563 47.8223C35.1563 48.0957 34.9121 48.0273 34.7559 48.0664C32.4219 48.5742 30.0879 48.5742 27.7539 48.0664C27.5977 48.0371 27.3535 48.1055 27.3535 47.8223C27.3535 47.5391 27.2461 47.2266 27.5781 47.0313C27.7832 46.9141 27.998 46.875 28.2324 46.875C29.2285 46.875 30.2441 46.875 31.25 46.875Z" fill="#E0DBC6"/>
<path d="M12.5293 11.5039C15.2051 11.6211 17.8809 11.7773 20.5566 11.6992C22.0313 11.6602 23.5059 11.5723 24.9707 11.5039C24.9805 11.6504 24.9805 11.7969 25 11.9434C25.0195 12.1777 24.9414 12.2852 24.6777 12.3047C21.8457 12.4902 19.0039 12.5684 16.1621 12.4707C15.1758 12.4316 14.1895 12.4316 13.2031 12.3242C12.4609 12.2363 12.4609 12.2852 12.5293 11.5039Z" fill="#860024"/>
<path d="M18.7598 20.9083C18.7695 21.0645 18.7012 21.211 18.6328 21.3477C17.6953 23.1641 16.7578 24.9805 15.8105 26.7872C15.6641 27.0704 15.5176 27.4122 15.0488 27.2559C14.6875 27.129 14.5996 26.9825 14.7168 26.5821C15.3809 24.3458 16.416 22.3047 17.8906 20.4981C18.0078 20.3516 18.0664 20.0782 18.3301 20.1368C18.5547 20.1856 18.7598 20.5665 18.7598 20.9083Z" fill="#FDFAE9"/>
<path d="M18.75 41.5918C18.7695 41.7872 18.7207 41.9434 18.6328 42.0801C18.3789 42.4512 18.2324 42.461 17.9492 42.1192C16.416 40.2442 15.3223 38.1446 14.6777 35.8106C14.6387 35.6543 14.502 35.4493 14.7656 35.3614C14.9902 35.2833 15.2051 35.0489 15.4785 35.2832C15.6348 35.42 15.7227 35.5762 15.8203 35.752C16.748 37.5391 17.6758 39.3262 18.6035 41.1133C18.6914 41.2696 18.7793 41.4258 18.75 41.5918Z" fill="#E0DBC6"/>
<path d="M47.8906 26.9628C47.9102 27.0214 47.8516 27.1093 47.7246 27.1386C47.5195 27.1874 47.3535 27.4218 47.0996 27.2558C46.9141 27.1289 46.8066 26.9628 46.709 26.7675C45.7812 24.9707 44.8438 23.1738 43.916 21.3769C43.7793 21.123 43.7109 20.8691 43.8086 20.5859C43.877 20.371 44.0332 20.205 44.2187 20.1367C44.4238 20.0585 44.4922 20.3222 44.5898 20.4394C46.0938 22.2851 47.168 24.3554 47.8125 26.6503C47.8223 26.7285 47.8418 26.8066 47.8906 26.9628Z" fill="#FDFAE9"/>
<path d="M43.75 41.6114C43.7305 41.4356 43.8086 41.2891 43.877 41.1426C44.8242 39.3165 45.7715 37.4805 46.7285 35.6641C46.875 35.3907 47.0117 35.0684 47.4609 35.2247C47.8223 35.3516 47.9102 35.4981 47.793 35.8985C47.1484 38.1446 46.0938 40.1758 44.6387 41.9922C44.5215 42.1387 44.4336 42.4512 44.1992 42.3536C43.916 42.2364 43.7207 41.9727 43.75 41.6114Z" fill="#E0DBC6"/>
<path d="M11.6992 30.1758C10.6836 30.0488 9.6582 29.9121 8.64258 29.7852C8.52539 29.7754 8.39844 29.7656 8.33984 29.668C7.8418 28.877 7.25586 28.1445 7.02148 27.2168C8.58398 27.4219 10.1465 27.627 11.709 27.8418C11.709 28.6133 11.709 29.3945 11.6992 30.1758Z" fill="#FDFAE9"/>
<path d="M12.5293 20.8789C12.5195 20.1856 12.5195 19.4825 12.5098 18.7891C12.5098 18.6426 12.4902 18.5059 12.7246 18.5254C14.1895 18.6133 15.6641 18.6914 17.2266 18.7793C16.582 19.5215 16.0547 20.2637 15.5176 20.9961C14.5215 21.045 13.5254 20.8692 12.5293 20.8789Z" fill="#E00038"/>
<path d="M26.582 11.3281C28.1836 11.1719 29.7754 10.9472 31.3477 10.5957C32.8613 10.2636 34.3652 9.89255 35.7324 9.10154C35.7812 9.07224 35.8594 9.08201 35.9277 9.08201C36.0449 9.51169 35.752 9.70701 35.459 9.89255C34.5898 10.4492 33.6133 10.7617 32.6367 11.0351C30.7812 11.5722 28.8672 11.8457 26.9531 12.0996C26.6699 12.1386 26.5137 12.0898 26.5723 11.7676C26.582 11.6211 26.5723 11.4746 26.582 11.3281Z" fill="#E0DBC6"/>
<path d="M15.4199 41.3086C14.9707 41.2988 14.5215 41.2988 14.0723 41.289C14.0723 41.2109 14.0527 41.123 14.0723 41.0449C14.1504 40.5761 13.9648 40.4199 13.4961 40.4199C12.5098 40.4199 12.5098 40.4004 12.5098 39.414C12.5098 38.8769 12.5 38.3398 12.5195 37.8125C12.5293 37.6367 12.373 37.3144 12.7051 37.3144C13.0371 37.3144 13.4766 37.1191 13.6523 37.6465C13.877 38.33 14.1602 38.9746 14.4922 39.6093C14.7754 40.1855 15.1074 40.7422 15.4199 41.3086Z" fill="#860024"/>
<path d="M14.082 16.3086C15.8203 16.3574 17.5488 16.4551 19.2871 16.4062C19.4141 16.4062 19.5508 16.3867 19.6387 16.5234C19.1602 17.002 18.6328 17.2559 17.9199 17.1973C16.8848 17.1191 15.8496 17.1289 14.8145 17.0898C14.0332 17.0703 14.0332 17.0703 14.082 16.3086Z" fill="#E0DBC6"/>
<path d="M36.6992 10.918C36.6992 11.709 36.709 12.4902 36.709 13.2812C35.5078 13.0371 34.3164 12.7148 33.0762 12.5684C34.3652 12.1582 35.6152 11.7188 36.6992 10.918Z" fill="#860024"/>
<path d="M11.6992 30.1758C11.6992 29.3945 11.709 28.6133 11.709 27.8418C12.832 27.8223 12.832 27.8223 12.6758 28.8867C12.6074 29.3457 12.5488 29.8144 12.5098 30.2832C12.4512 31.0156 12.4512 31.0156 11.6992 30.9277C11.709 30.6738 11.6992 30.4199 11.6992 30.1758Z" fill="#860024"/>
<path d="M12.5293 20.8789C13.5352 20.8692 14.5215 21.0449 15.5273 20.9864C15.1074 21.836 15.0781 21.8555 14.1211 21.7481C13.8184 21.7188 13.5156 21.6797 13.2031 21.6699C12.4609 21.6602 12.4609 21.6602 12.5293 20.8789Z" fill="#860024"/>
<path d="M13.291 25.7421C13.2813 25.6836 13.2715 25.625 13.2617 25.5664C13.2617 24.7949 13.2715 24.0234 13.2715 23.2617C13.5937 23.2324 13.916 23.2421 14.2285 23.3496C13.916 24.1601 13.6035 24.9511 13.291 25.7421Z" fill="#E0DBC6"/>
<path d="M19.5508 32.0117C19.5508 31.5039 19.5508 30.9961 19.5508 30.4883C20.3223 30.4688 20.3223 30.4688 20.4199 29.707C20.498 29.0918 20.498 29.0918 19.7559 28.877C19.9023 28.3691 20.0488 27.8711 20.2051 27.3633C20.332 27.4023 20.4688 27.4121 20.5762 27.4707C20.8789 27.6465 20.9766 27.4902 21.0938 27.2266C23.0859 22.2754 28.0957 19.5313 33.3789 20.5078C39.082 21.5625 43.0859 27.3145 42.0605 32.998C40.9961 38.8867 35.9277 42.7051 29.9707 42.0996C25.166 41.6113 21.0449 37.6074 20.4199 32.8125C20.3223 32.0313 20.3223 32.0313 19.5508 32.0117ZM31.2695 23.4375C30.8691 23.4473 30.6445 23.6719 30.4883 24.0039C29.9805 25.1172 29.3652 26.1719 28.6523 27.1582C27.5977 28.6035 26.4746 29.9609 24.6875 30.5566C24.3652 30.6641 24.2188 30.957 24.2383 31.2891C24.2578 31.6309 24.4336 31.875 24.7656 31.9824C26.0254 32.3828 26.9434 33.2422 27.7832 34.2188C28.8477 35.459 29.707 36.8359 30.4102 38.3105C30.5859 38.6816 30.7617 39.0625 31.2598 39.0625C31.7578 39.0723 31.9434 38.7012 32.1191 38.3203C32.6562 37.1875 33.291 36.1035 34.043 35.1074C35.0488 33.7695 36.1328 32.5195 37.793 31.9727C38.1152 31.8652 38.291 31.6016 38.291 31.2598C38.291 30.8984 38.1152 30.625 37.7637 30.5176C36.5039 30.1172 35.5859 29.248 34.7461 28.2813C33.6426 27.002 32.7734 25.5762 32.0508 24.0625C31.875 23.7207 31.6699 23.457 31.2695 23.4375Z" fill="#FDFAE9"/>
<path d="M19.5508 32.0117C20.3223 32.0313 20.3223 32.0313 20.4297 32.8125C21.0449 37.6074 25.166 41.6113 29.9805 42.0996C35.9375 42.6953 41.0059 38.877 42.0703 32.9981C43.0957 27.3145 39.0918 21.5625 33.3887 20.5078C28.1055 19.5313 23.0859 22.2656 21.1035 27.2266C20.9961 27.5 20.8984 27.6465 20.5859 27.4707C20.4785 27.4121 20.3418 27.3926 20.2148 27.3633C19.4531 27.041 19.4531 27.041 19.7852 26.2891C21.9434 21.3672 26.8164 18.4082 32.1777 18.7598C37.8223 19.1309 42.6855 23.5352 43.5742 29.1016C44.6875 36.0352 40.3809 42.2852 33.4863 43.584C26.5625 44.8828 20.1172 40.1758 18.9551 33.457C18.9063 33.1836 18.9063 32.9004 18.8379 32.6367C18.7012 32.1484 18.8965 31.9824 19.3652 32.0313C19.4141 32.041 19.4824 32.0215 19.5508 32.0117Z" fill="#020102"/>
<path d="M19.7559 28.8769C20.498 29.0918 20.498 29.0918 20.4199 29.707C20.3223 30.4687 20.3223 30.4687 19.5508 30.4883C18.7793 30.4101 18.7793 30.4101 18.8574 29.6093C18.8574 29.5898 18.8574 29.58 18.8574 29.5605C19.0527 28.6133 18.8379 28.7597 19.7559 28.8769Z" fill="#020102"/>
<path d="M39.8438 43.789C39.8438 44.5312 39.8438 44.5312 39.1113 44.5312C38.2813 44.5312 38.2813 44.5312 38.2813 43.6914C38.2813 43.6132 38.291 43.5254 38.2813 43.4472C38.2227 43.0761 38.3594 42.9004 38.75 42.9687C38.8477 42.9882 38.9453 42.9687 39.043 42.9687C39.8438 42.9687 39.8438 42.9687 39.8438 43.789Z" fill="#020102"/>
<path d="M23.4473 42.9688C24.2188 42.9688 24.2188 42.9687 24.2188 43.9258C24.2188 44.5312 24.2188 44.5312 23.252 44.5312C22.6563 44.5312 22.6562 44.5312 22.6562 43.5547C22.6562 42.9688 22.6563 42.9688 23.4473 42.9688Z" fill="#020102"/>
<path d="M24.2187 18.7988C24.2187 19.541 24.2187 19.541 23.4766 19.541C22.6562 19.541 22.6562 19.541 22.6562 18.7402C22.6562 18.623 22.666 18.5156 22.6562 18.3984C22.6074 18.0566 22.7441 17.9199 23.0859 17.9785C23.1836 17.9882 23.2812 17.9785 23.3789 17.9785C24.2187 17.9687 24.2187 17.9687 24.2187 18.7988Z" fill="#020102"/>
<path d="M46.875 31.2402C46.875 32.0312 46.875 32.0312 45.9473 32.0312C45.3125 32.0312 45.3125 32.0312 45.3125 31.0937C45.3125 30.4687 45.3125 30.4688 46.3086 30.4688C46.875 30.4688 46.875 30.4687 46.875 31.2402Z" fill="#020102"/>
<path d="M15.625 31.2598C15.625 30.4688 15.625 30.4688 16.5527 30.4688C17.1875 30.4688 17.1875 30.4688 17.1875 31.4063C17.1875 32.0313 17.1875 32.0312 16.1914 32.0312C15.625 32.0312 15.625 32.0313 15.625 31.2598Z" fill="#020102"/>
<path d="M39.0625 17.9688C39.8438 17.9688 39.8438 17.9688 39.8438 18.9063C39.8438 19.5313 39.8437 19.5312 38.8965 19.5312C38.2812 19.5312 38.2812 19.5312 38.2812 18.5742C38.2812 17.9687 38.2812 17.9688 39.0625 17.9688Z" fill="#020102"/>
<path d="M18.3984 2.34378C22.0801 2.33401 25.3418 2.49026 28.584 2.93948C29.2871 3.03714 30 3.15433 30.6738 3.3887C30.9473 3.48636 31.2207 3.59378 31.4648 3.75003C32.2266 4.23831 32.2363 5.13675 31.4648 5.62503C30.5762 6.18167 29.541 6.30862 28.5254 6.44534C23.6523 7.1094 18.7695 7.168 13.8672 6.91409C11.7188 6.7969 9.55078 6.64065 7.44141 6.15237C6.93359 6.03519 6.43555 5.89847 5.99609 5.59573C5.29297 5.10745 5.2832 4.25784 5.99609 3.77933C6.5625 3.39847 7.2168 3.25198 7.87109 3.12503C9.90234 2.71487 11.9629 2.57815 14.0234 2.46097C15.6055 2.36331 17.207 2.30472 18.3984 2.34378ZM8.33008 4.64847C11.9629 5.74222 26.4551 5.72269 29.3164 4.62894C22.2461 3.62308 15.293 3.62308 8.33008 4.64847Z" fill="#020102"/>
<path d="M31.2695 23.4375C31.6797 23.457 31.8848 23.7207 32.0508 24.0625C32.7734 25.5762 33.6426 27.002 34.7461 28.2813C35.5859 29.248 36.5039 30.1074 37.7637 30.5176C38.1055 30.625 38.291 30.8984 38.291 31.2598C38.291 31.6016 38.1152 31.8652 37.793 31.9727C36.123 32.5293 35.0488 33.7793 34.043 35.1074C33.291 36.1035 32.6562 37.1875 32.1191 38.3203C31.9434 38.7012 31.7578 39.0625 31.2598 39.0625C30.7617 39.0527 30.5859 38.6816 30.4102 38.3105C29.707 36.8359 28.8477 35.459 27.7832 34.2187C26.9531 33.252 26.0254 32.3828 24.7656 31.9824C24.4434 31.875 24.2578 31.6309 24.2383 31.2891C24.2188 30.9473 24.3652 30.6641 24.6875 30.5566C26.4746 29.9609 27.5977 28.6035 28.6523 27.1582C29.375 26.1719 29.9805 25.1172 30.4883 24.0039C30.6348 23.6719 30.8691 23.4473 31.2695 23.4375ZM31.2695 26.0645C31.1914 26.0645 31.1914 26.0645 30.9961 26.3867C29.9414 28.1543 28.7695 29.8242 27.0703 31.0547C26.8457 31.2207 26.8945 31.2988 27.0898 31.4355C28.7598 32.666 29.9316 34.3164 30.9766 36.0742C31.25 36.543 31.25 36.543 31.5234 36.0742C32.4316 34.541 33.4473 33.0957 34.8047 31.9238C35.0586 31.6992 35.5371 31.5137 35.5566 31.2793C35.5762 30.9668 35.0879 30.8203 34.8242 30.5957C33.4668 29.3945 32.4316 27.9492 31.5137 26.4062C31.4453 26.2793 31.4063 26.1328 31.2695 26.0645Z" fill="#020102"/>
<path d="M8.33008 4.64845C15.2832 3.62306 22.2363 3.62306 29.3164 4.62892C26.4648 5.72267 11.9727 5.7422 8.33008 4.64845Z" fill="#FDFAE9"/>
<path d="M31.2695 26.0645C31.4063 26.123 31.4453 26.2793 31.5137 26.3965C32.4316 27.9395 33.4668 29.3945 34.8242 30.5859C35.0879 30.8105 35.5762 30.957 35.5566 31.2695C35.5371 31.5039 35.0684 31.6895 34.8047 31.9141C33.4473 33.0859 32.4316 34.5312 31.5234 36.0645C31.25 36.5332 31.25 36.5332 30.9766 36.0645C29.9316 34.3066 28.7598 32.6562 27.0898 31.4258C26.9043 31.2891 26.8457 31.2109 27.0703 31.0449C28.7598 29.8145 29.9414 28.1445 30.9961 26.377C31.1914 26.0645 31.1816 26.0645 31.2695 26.0645Z" fill="#E00038"/>
</g>
<defs>
<clipPath id="clip0_5_21">
<rect width="50" height="50" fill="white"/>
</clipPath>
</defs>
</svg>
